<mxfile host="app.diagrams.net" modified="2024-04-07T19:07:43.127Z" agent="Mozilla/5.0 (Windows NT 10.0; Win64; x64) AppleWebKit/537.36 (KHTML, like Gecko) Chrome/122.0.0.0 Safari/537.36" etag="M2XTKKJbgq9bIoHVqQ6o" version="24.2.2" type="device">
  <diagram name="PÃ¡gina-1" id="IdgD3WxZepG8dMzpgzEZ">
    <mxGraphModel dx="1593" dy="864" grid="1" gridSize="10" guides="1" tooltips="1" connect="1" arrows="1" fold="1" page="1" pageScale="1" pageWidth="827" pageHeight="1169" math="1" shadow="0">
      <root>
        <mxCell id="0" />
        <mxCell id="1" parent="0" />
        <mxCell id="JvKj-cZyrbmFvAXs8Hwf-75" value="" style="group" vertex="1" connectable="0" parent="1">
          <mxGeometry x="20.279999999999916" y="192.71999999999997" width="787.3699999999999" height="783.9299999999998" as="geometry" />
        </mxCell>
        <mxCell id="JvKj-cZyrbmFvAXs8Hwf-63" value="" style="shape=tape;whiteSpace=wrap;html=1;rotation=90;size=0.0625;fontFamily=Lucida Console;fontSize=10;fillColor=#fbf0df;shadow=1;" vertex="1" parent="JvKj-cZyrbmFvAXs8Hwf-75">
          <mxGeometry x="1.7200000000000841" y="-1.7199999999999704" width="783.93" height="787.37" as="geometry" />
        </mxCell>
        <mxCell id="JvKj-cZyrbmFvAXs8Hwf-59" value="" style="whiteSpace=wrap;html=1;aspect=fixed;rounded=1;fillColor=#f5f5f5;fontColor=#333333;strokeColor=#666666;fontFamily=Lucida Console;fontSize=10;textShadow=0;shadow=0;glass=0;" vertex="1" parent="JvKj-cZyrbmFvAXs8Hwf-75">
          <mxGeometry x="512.8300000000002" y="569.2800000000001" width="160" height="160" as="geometry" />
        </mxCell>
        <mxCell id="So9jFkowfehco7mqPkWx-2" value="Entrance&lt;br style=&quot;font-size: 10px;&quot;&gt;(Start)" style="ellipse;whiteSpace=wrap;html=1;fillColor=#dae8fc;strokeColor=#6c8ebf;fontFamily=Lucida Console;fontSize=10;" parent="JvKj-cZyrbmFvAXs8Hwf-75" vertex="1">
          <mxGeometry x="85.26000000000009" y="307.28" width="140" height="140" as="geometry" />
        </mxCell>
        <mxCell id="So9jFkowfehco7mqPkWx-3" value="Rock" style="ellipse;whiteSpace=wrap;html=1;fillColor=#d5e8d4;strokeColor=#82b366;fontFamily=Lucida Console;fontSize=10;" parent="JvKj-cZyrbmFvAXs8Hwf-75" vertex="1">
          <mxGeometry x="225.7200000000001" y="337.28" width="80" height="80" as="geometry" />
        </mxCell>
        <mxCell id="JvKj-cZyrbmFvAXs8Hwf-2" value="Main Room" style="ellipse;whiteSpace=wrap;html=1;fillColor=#dae8fc;strokeColor=#6c8ebf;fontFamily=Lucida Console;fontSize=10;" vertex="1" parent="JvKj-cZyrbmFvAXs8Hwf-75">
          <mxGeometry x="305.7200000000001" y="307.28" width="140" height="140" as="geometry" />
        </mxCell>
        <mxCell id="JvKj-cZyrbmFvAXs8Hwf-3" value="Orange&lt;div style=&quot;font-size: 10px;&quot;&gt;Door&lt;/div&gt;" style="ellipse;whiteSpace=wrap;html=1;fillColor=#d5e8d4;strokeColor=#82b366;fontFamily=Lucida Console;fontSize=10;" vertex="1" parent="JvKj-cZyrbmFvAXs8Hwf-75">
          <mxGeometry x="442.8300000000001" y="337.28" width="80" height="80" as="geometry" />
        </mxCell>
        <mxCell id="JvKj-cZyrbmFvAXs8Hwf-4" value="Switch Room" style="ellipse;whiteSpace=wrap;html=1;fillColor=#dae8fc;strokeColor=#6c8ebf;fontFamily=Lucida Console;fontSize=10;" vertex="1" parent="JvKj-cZyrbmFvAXs8Hwf-75">
          <mxGeometry x="522.83" y="307.28" width="140" height="140" as="geometry" />
        </mxCell>
        <mxCell id="JvKj-cZyrbmFvAXs8Hwf-5" value="Blue&lt;div style=&quot;font-size: 10px;&quot;&gt;Door&lt;/div&gt;" style="ellipse;whiteSpace=wrap;html=1;fillColor=#d5e8d4;strokeColor=#82b366;fontFamily=Lucida Console;fontSize=10;" vertex="1" parent="JvKj-cZyrbmFvAXs8Hwf-75">
          <mxGeometry x="115.2600000000001" y="447.28" width="80" height="80" as="geometry" />
        </mxCell>
        <mxCell id="JvKj-cZyrbmFvAXs8Hwf-6" value="Oxygen Store" style="ellipse;whiteSpace=wrap;html=1;fillColor=#dae8fc;strokeColor=#6c8ebf;fontFamily=Lucida Console;fontSize=10;" vertex="1" parent="JvKj-cZyrbmFvAXs8Hwf-75">
          <mxGeometry x="85.26000000000009" y="527.2800000000001" width="140" height="140" as="geometry" />
        </mxCell>
        <mxCell id="JvKj-cZyrbmFvAXs8Hwf-7" value="Vault Entrance" style="ellipse;whiteSpace=wrap;html=1;fillColor=#dae8fc;strokeColor=#6c8ebf;fontFamily=Lucida Console;fontSize=10;" vertex="1" parent="JvKj-cZyrbmFvAXs8Hwf-75">
          <mxGeometry x="305.7200000000001" y="87.28" width="140" height="140" as="geometry" />
        </mxCell>
        <mxCell id="JvKj-cZyrbmFvAXs8Hwf-8" value="Red&lt;div style=&quot;font-size: 10px;&quot;&gt;Door&lt;/div&gt;" style="ellipse;whiteSpace=wrap;html=1;fillColor=#d5e8d4;strokeColor=#82b366;fontFamily=Lucida Console;fontSize=10;" vertex="1" parent="JvKj-cZyrbmFvAXs8Hwf-75">
          <mxGeometry x="442.8300000000001" y="117.28" width="80" height="80" as="geometry" />
        </mxCell>
        <mxCell id="JvKj-cZyrbmFvAXs8Hwf-9" value="Vault&lt;div style=&quot;font-size: 10px;&quot;&gt;(Final)&lt;/div&gt;" style="ellipse;whiteSpace=wrap;html=1;fillColor=#dae8fc;strokeColor=#6c8ebf;fontFamily=Lucida Console;fontSize=10;" vertex="1" parent="JvKj-cZyrbmFvAXs8Hwf-75">
          <mxGeometry x="522.83" y="87.28" width="140" height="140" as="geometry" />
        </mxCell>
        <mxCell id="JvKj-cZyrbmFvAXs8Hwf-10" value="" style="ellipse;whiteSpace=wrap;html=1;fillColor=#d5e8d4;strokeColor=#82b366;fontFamily=Lucida Console;fontSize=10;" vertex="1" parent="JvKj-cZyrbmFvAXs8Hwf-75">
          <mxGeometry x="335.7200000000001" y="227.28" width="80" height="80" as="geometry" />
        </mxCell>
        <mxCell id="JvKj-cZyrbmFvAXs8Hwf-13" value="Locker" style="ellipse;whiteSpace=wrap;html=1;fillColor=#f8cecc;strokeColor=#b85450;fontFamily=Lucida Console;fontSize=10;" vertex="1" parent="JvKj-cZyrbmFvAXs8Hwf-75">
          <mxGeometry x="563.33" y="397.28" width="60" height="40" as="geometry" />
        </mxCell>
        <mxCell id="JvKj-cZyrbmFvAXs8Hwf-18" value="Corpse" style="ellipse;whiteSpace=wrap;html=1;fillColor=#f8cecc;strokeColor=#b85450;fontFamily=Lucida Console;fontSize=10;" vertex="1" parent="JvKj-cZyrbmFvAXs8Hwf-75">
          <mxGeometry x="345.7200000000001" y="397.28" width="60" height="40" as="geometry" />
        </mxCell>
        <mxCell id="JvKj-cZyrbmFvAXs8Hwf-19" value="Shelf" style="ellipse;whiteSpace=wrap;html=1;fillColor=#f8cecc;strokeColor=#b85450;fontFamily=Lucida Console;fontSize=10;" vertex="1" parent="JvKj-cZyrbmFvAXs8Hwf-75">
          <mxGeometry x="125.2600000000001" y="617.2800000000001" width="60" height="40" as="geometry" />
        </mxCell>
        <mxCell id="JvKj-cZyrbmFvAXs8Hwf-20" value="Generator" style="ellipse;whiteSpace=wrap;html=1;fillColor=#f8cecc;strokeColor=#b85450;fontFamily=Lucida Console;fontSize=10;" vertex="1" parent="JvKj-cZyrbmFvAXs8Hwf-75">
          <mxGeometry x="563.33" y="317.28" width="60" height="40" as="geometry" />
        </mxCell>
        <mxCell id="JvKj-cZyrbmFvAXs8Hwf-22" value="" style="shape=umlActor;verticalLabelPosition=bottom;verticalAlign=top;html=1;outlineConnect=0;fontFamily=Lucida Console;fontSize=10;" vertex="1" parent="JvKj-cZyrbmFvAXs8Hwf-75">
          <mxGeometry x="147.2600000000001" y="324.28" width="16" height="30" as="geometry" />
        </mxCell>
        <mxCell id="JvKj-cZyrbmFvAXs8Hwf-33" style="rounded=0;orthogonalLoop=1;jettySize=auto;html=1;entryX=0;entryY=1;entryDx=0;entryDy=0;exitX=0.5;exitY=0;exitDx=0;exitDy=0;fontFamily=Lucida Console;fontSize=10;" edge="1" parent="JvKj-cZyrbmFvAXs8Hwf-75" source="JvKj-cZyrbmFvAXs8Hwf-23" target="JvKj-cZyrbmFvAXs8Hwf-19">
          <mxGeometry relative="1" as="geometry" />
        </mxCell>
        <mxCell id="JvKj-cZyrbmFvAXs8Hwf-23" value="Oxygen&lt;div style=&quot;font-size: 10px;&quot;&gt;Tank&lt;/div&gt;" style="ellipse;whiteSpace=wrap;html=1;fillColor=#f8cecc;strokeColor=#b85450;fontFamily=Lucida Console;fontSize=10;" vertex="1" parent="JvKj-cZyrbmFvAXs8Hwf-75">
          <mxGeometry x="91.26000000000009" y="687.2800000000001" width="60" height="40" as="geometry" />
        </mxCell>
        <mxCell id="JvKj-cZyrbmFvAXs8Hwf-32" style="rounded=0;orthogonalLoop=1;jettySize=auto;html=1;entryX=1;entryY=1;entryDx=0;entryDy=0;exitX=0.5;exitY=0;exitDx=0;exitDy=0;fontFamily=Lucida Console;fontSize=10;" edge="1" parent="JvKj-cZyrbmFvAXs8Hwf-75" source="JvKj-cZyrbmFvAXs8Hwf-25" target="JvKj-cZyrbmFvAXs8Hwf-19">
          <mxGeometry relative="1" as="geometry">
            <mxPoint x="265.2600000000001" y="687.2800000000001" as="sourcePoint" />
          </mxGeometry>
        </mxCell>
        <mxCell id="JvKj-cZyrbmFvAXs8Hwf-25" value="Orange&lt;div style=&quot;font-size: 10px;&quot;&gt;Key&lt;/div&gt;" style="ellipse;whiteSpace=wrap;html=1;fillColor=#f8cecc;strokeColor=#b85450;fontFamily=Lucida Console;fontSize=10;" vertex="1" parent="JvKj-cZyrbmFvAXs8Hwf-75">
          <mxGeometry x="159.2600000000001" y="687.2800000000001" width="60" height="40" as="geometry" />
        </mxCell>
        <mxCell id="JvKj-cZyrbmFvAXs8Hwf-30" style="rounded=0;orthogonalLoop=1;jettySize=auto;html=1;entryX=1;entryY=1;entryDx=0;entryDy=0;exitX=0.5;exitY=0;exitDx=0;exitDy=0;fontFamily=Lucida Console;fontSize=10;" edge="1" parent="JvKj-cZyrbmFvAXs8Hwf-75" source="JvKj-cZyrbmFvAXs8Hwf-26" target="JvKj-cZyrbmFvAXs8Hwf-18">
          <mxGeometry relative="1" as="geometry">
            <mxPoint x="489.7200000000001" y="497.28" as="sourcePoint" />
          </mxGeometry>
        </mxCell>
        <mxCell id="JvKj-cZyrbmFvAXs8Hwf-26" value="&lt;div style=&quot;font-size: 10px;&quot;&gt;Blue&lt;/div&gt;&lt;div style=&quot;font-size: 10px;&quot;&gt;Key&lt;/div&gt;" style="ellipse;whiteSpace=wrap;html=1;fillColor=#f8cecc;strokeColor=#b85450;fontFamily=Lucida Console;fontSize=10;" vertex="1" parent="JvKj-cZyrbmFvAXs8Hwf-75">
          <mxGeometry x="380.7200000000001" y="467.28" width="60" height="40" as="geometry" />
        </mxCell>
        <mxCell id="JvKj-cZyrbmFvAXs8Hwf-31" style="edgeStyle=orthogonalEdgeStyle;rounded=0;orthogonalLoop=1;jettySize=auto;html=1;entryX=0.5;entryY=1;entryDx=0;entryDy=0;fontFamily=Lucida Console;fontSize=10;" edge="1" parent="JvKj-cZyrbmFvAXs8Hwf-75" source="JvKj-cZyrbmFvAXs8Hwf-27" target="JvKj-cZyrbmFvAXs8Hwf-13">
          <mxGeometry relative="1" as="geometry" />
        </mxCell>
        <mxCell id="JvKj-cZyrbmFvAXs8Hwf-27" value="&lt;div style=&quot;font-size: 10px;&quot;&gt;&lt;span style=&quot;background-color: initial; font-size: 10px;&quot;&gt;Red&lt;/span&gt;&lt;/div&gt;&lt;div style=&quot;font-size: 10px;&quot;&gt;&lt;span style=&quot;background-color: initial; font-size: 10px;&quot;&gt;Key&lt;/span&gt;&lt;br style=&quot;font-size: 10px;&quot;&gt;&lt;/div&gt;" style="ellipse;whiteSpace=wrap;html=1;fillColor=#f8cecc;strokeColor=#b85450;fontFamily=Lucida Console;fontSize=10;" vertex="1" parent="JvKj-cZyrbmFvAXs8Hwf-75">
          <mxGeometry x="563.33" y="467.28" width="60" height="40" as="geometry" />
        </mxCell>
        <mxCell id="JvKj-cZyrbmFvAXs8Hwf-29" value="" style="rounded=0;orthogonalLoop=1;jettySize=auto;html=1;entryX=0;entryY=1;entryDx=0;entryDy=0;exitX=0.5;exitY=0;exitDx=0;exitDy=0;fontFamily=Lucida Console;fontSize=10;" edge="1" parent="JvKj-cZyrbmFvAXs8Hwf-75" source="JvKj-cZyrbmFvAXs8Hwf-28" target="JvKj-cZyrbmFvAXs8Hwf-18">
          <mxGeometry relative="1" as="geometry" />
        </mxCell>
        <mxCell id="JvKj-cZyrbmFvAXs8Hwf-28" value="&lt;div style=&quot;font-size: 10px;&quot;&gt;&lt;span style=&quot;background-color: initial; font-size: 10px;&quot;&gt;Note&lt;/span&gt;&lt;br style=&quot;font-size: 10px;&quot;&gt;&lt;/div&gt;" style="ellipse;whiteSpace=wrap;html=1;fillColor=#f8cecc;strokeColor=#b85450;fontFamily=Lucida Console;fontSize=10;" vertex="1" parent="JvKj-cZyrbmFvAXs8Hwf-75">
          <mxGeometry x="310.7200000000001" y="467.28" width="60" height="40" as="geometry" />
        </mxCell>
        <mxCell id="JvKj-cZyrbmFvAXs8Hwf-44" value="" style="points=[[0,0.5,0],[0.24,0,0],[0.5,0.28,0],[0.995,0.475,0],[0.5,0.72,0],[0.24,1,0]];verticalLabelPosition=bottom;html=1;verticalAlign=top;aspect=fixed;align=center;pointerEvents=1;shape=mxgraph.cisco19.key;fillColor=#1428DD;strokeColor=default;strokeWidth=14;perimeterSpacing=24;shadow=0;fontFamily=Lucida Console;fontSize=10;" vertex="1" parent="JvKj-cZyrbmFvAXs8Hwf-75">
          <mxGeometry x="396.8300000000001" y="509.28" width="27.78" height="12.5" as="geometry" />
        </mxCell>
        <mxCell id="JvKj-cZyrbmFvAXs8Hwf-45" value="" style="points=[[0,0.5,0],[0.24,0,0],[0.5,0.28,0],[0.995,0.475,0],[0.5,0.72,0],[0.24,1,0]];verticalLabelPosition=bottom;sketch=0;html=1;verticalAlign=top;aspect=fixed;align=center;pointerEvents=1;shape=mxgraph.cisco19.key;fillColor=#DDA036;strokeColor=none;fontFamily=Lucida Console;fontSize=10;" vertex="1" parent="JvKj-cZyrbmFvAXs8Hwf-75">
          <mxGeometry x="175.37000000000012" y="729.2800000000001" width="27.78" height="12.5" as="geometry" />
        </mxCell>
        <mxCell id="JvKj-cZyrbmFvAXs8Hwf-47" value="" style="points=[[0,0.5,0],[0.24,0,0],[0.5,0.28,0],[0.995,0.475,0],[0.5,0.72,0],[0.24,1,0]];verticalLabelPosition=bottom;sketch=0;html=1;verticalAlign=top;aspect=fixed;align=center;pointerEvents=1;shape=mxgraph.cisco19.key;fillColor=#B30707;strokeColor=none;fontFamily=Lucida Console;fontSize=10;" vertex="1" parent="JvKj-cZyrbmFvAXs8Hwf-75">
          <mxGeometry x="578.9400000000002" y="509.28" width="27.78" height="12.5" as="geometry" />
        </mxCell>
        <mxCell id="JvKj-cZyrbmFvAXs8Hwf-49" value="" style="sketch=0;aspect=fixed;pointerEvents=1;shadow=0;dashed=0;html=1;strokeColor=none;labelPosition=center;verticalLabelPosition=bottom;verticalAlign=top;align=center;fillColor=#1428DD;shape=mxgraph.mscae.enterprise.lock;fontFamily=Lucida Console;fontSize=10;" vertex="1" parent="JvKj-cZyrbmFvAXs8Hwf-75">
          <mxGeometry x="147.26000000000016" y="437.28" width="15.6" height="20" as="geometry" />
        </mxCell>
        <mxCell id="JvKj-cZyrbmFvAXs8Hwf-51" value="" style="sketch=0;aspect=fixed;pointerEvents=1;shadow=0;dashed=0;html=1;strokeColor=none;labelPosition=center;verticalLabelPosition=bottom;verticalAlign=top;align=center;fillColor=#DDA036;shape=mxgraph.mscae.enterprise.lock;fontFamily=Lucida Console;fontSize=10;" vertex="1" parent="JvKj-cZyrbmFvAXs8Hwf-75">
          <mxGeometry x="435.72000000000014" y="367.28" width="15.6" height="20" as="geometry" />
        </mxCell>
        <mxCell id="JvKj-cZyrbmFvAXs8Hwf-52" value="" style="sketch=0;aspect=fixed;pointerEvents=1;shadow=0;dashed=0;html=1;strokeColor=none;labelPosition=center;verticalLabelPosition=bottom;verticalAlign=top;align=center;fillColor=#B30707;shape=mxgraph.mscae.enterprise.lock;fontFamily=Lucida Console;fontSize=10;" vertex="1" parent="JvKj-cZyrbmFvAXs8Hwf-75">
          <mxGeometry x="436.23000000000013" y="147.28" width="15.6" height="20" as="geometry" />
        </mxCell>
        <mxCell id="JvKj-cZyrbmFvAXs8Hwf-53" value="*******" style="strokeWidth=1;html=1;shadow=0;dashed=0;shape=mxgraph.ios.iTextInput;strokeColor=#444444;align=center;buttonText=;fontSize=9;whiteSpace=wrap;verticalAlign=middle;labelPosition=center;verticalLabelPosition=middle;spacing=8;spacingTop=4;fontFamily=Lucida Console;" vertex="1" parent="JvKj-cZyrbmFvAXs8Hwf-75">
          <mxGeometry x="320.7200000000001" y="510.53" width="40" height="10" as="geometry" />
        </mxCell>
        <mxCell id="JvKj-cZyrbmFvAXs8Hwf-56" value="*******" style="strokeWidth=1;html=1;shadow=0;dashed=0;shape=mxgraph.ios.iTextInput;strokeColor=#444444;align=center;buttonText=;fontSize=9;whiteSpace=wrap;verticalAlign=middle;labelPosition=center;verticalLabelPosition=middle;spacing=8;spacingTop=4;fontFamily=Lucida Console;" vertex="1" parent="JvKj-cZyrbmFvAXs8Hwf-75">
          <mxGeometry x="572.83" y="395.28" width="40" height="10" as="geometry" />
        </mxCell>
        <mxCell id="JvKj-cZyrbmFvAXs8Hwf-24" value="" style="sketch=0;aspect=fixed;pointerEvents=1;shadow=0;dashed=0;html=1;strokeColor=none;labelPosition=center;verticalLabelPosition=bottom;verticalAlign=top;align=center;fillColor=#000000;shape=mxgraph.mscae.enterprise.lock;fontFamily=Lucida Console;fontSize=10;" vertex="1" parent="JvKj-cZyrbmFvAXs8Hwf-75">
          <mxGeometry x="588.5400000000001" y="386.28" width="8.58" height="11" as="geometry" />
        </mxCell>
        <mxCell id="JvKj-cZyrbmFvAXs8Hwf-61" value="Needs to be activated to breathe in the vault" style="shape=callout;whiteSpace=wrap;html=1;perimeter=calloutPerimeter;rotation=0;position2=0.22;size=37;position=0.28;base=20;rounded=1;fontFamily=Lucida Console;fontSize=10;" vertex="1" parent="JvKj-cZyrbmFvAXs8Hwf-75">
          <mxGeometry x="566.83" y="237.28" width="158" height="87" as="geometry" />
        </mxCell>
        <mxCell id="JvKj-cZyrbmFvAXs8Hwf-64" value="Apocalypse Zork Map" style="text;html=1;align=left;verticalAlign=middle;whiteSpace=wrap;rounded=0;fontSize=20;fontStyle=3;fontFamily=Lucida Console;shadow=0;glass=0;textShadow=0;" vertex="1" parent="JvKj-cZyrbmFvAXs8Hwf-75">
          <mxGeometry x="42.76000000000009" y="27.940000000000026" width="301" height="60" as="geometry" />
        </mxCell>
        <mxCell id="JvKj-cZyrbmFvAXs8Hwf-66" value="Daniel Zimmermann GarcÃ­a" style="text;html=1;align=left;verticalAlign=middle;whiteSpace=wrap;rounded=0;fontSize=12;fontStyle=2;fontFamily=Lucida Console;shadow=0;glass=0;" vertex="1" parent="JvKj-cZyrbmFvAXs8Hwf-75">
          <mxGeometry x="42.76000000000009" y="57.940000000000026" width="301" height="60" as="geometry" />
        </mxCell>
        <mxCell id="JvKj-cZyrbmFvAXs8Hwf-76" value="" style="shape=image;verticalLabelPosition=bottom;labelBackgroundColor=default;verticalAlign=top;aspect=fixed;imageAspect=0;image=data:image/png,iVBORw0KGgoAAAANSUhEUgAAAUAAAAE0CAYAAABdI+p9AAAAAXNSR0IArs4c6QAAAARnQU1BAACxjwv8YQUAAAAJcEhZcwAADsMAAA7DAcdvqGQAAHF5SURBVHhe7d0PxIbffxfwSZJkMjOZzEwymUmSzGSSTJLMzMxkZpJkZiYzGZPJJDMzSTLJzGQy85UkmfwkM0mSJEmSSZKZZFLX6/v9vX+/s2vnXPd17ue6n+e+rvvz5nie537u+/pzzvm8P+/P53POdX9JofDB+IqlffPSfmBpP7G0v720P7e0WXzV0n54af92ab+xtP+9tL+wtEKhUHg6/P6l/fjSfnlp/2BpP720X13a/1vav1kaYtwLhPnPl4YAv2VpP7i0T5b29UsrFAqFp8FvX9q3LY1S+5ml/YGl/a6lffnSkCECpN6+a2l78CeW9u+WhgQdG37b0n73538WCoXCUwAhfevS/tvS/v7SvnRpASL8L0tDgBpFhxi34P//cmlC59/phUKhUHhWfM3S/vXSEN0f9EIDecBfW1oIkAoUzm6Bkvz1pf3RT/8qFAqFJ4ZChwLFP15awtXg+5f2f5eGHEOEn1vaSNl5XZ5PKN0qyUKhUHg6CFf/ydIQ4I96YYW/tzSk92NL+9nP/44QqbxeLo+a/J9L897f4YVCoVB4Vvzepf3c0v7K0r7MCw2Sy0vY+8eWhtyQ4L9a2vr9gBj9n3KsYkehUHh6jIiKmvuvS1Mc+bqlUXQ/uTQEp33f0trPCp/zf1XgQqFQOC3+5NLk/SyDsRwGrBNEiEjuPy1NlTiQ8/ulpSmA/D4vFAqFwlkhjJUbtBg6xRE//+rSogItmk6u76uXRjH++6WtiymFQqFwKlgQreDx3Z/+9UXYDUL9IUC7RL5haSDs/T9L+8VP/yoUCoWTwnIWW98oOvm/Nb53adQhEkSUdnh4DWH2qsmFQqFwGnzt0lR8f2FpyG0NFeBfWRoC9L4/u7S/uzSk+O1LKxQKhdMiuzm+49O/+vjOpXkPElT8sDTG3394aYVCoXBa2BNs32+qvz1QhhZRI0ChryZk3vpMoVAofDjs8R3t1fW4Kktd9qzlc5wsjtaQZi2ALhQKTwvr+5CW/b0eV5VlLJauqOja/fHnl7aHyBRLqMUQ4N9ZWqFQKDwlkJrc3f9YGsL6X0v7p0tDYh6GIKT9M0ubUXG2yFGMQuAf8kKhUCg8Kyg9hQpk5anP1u155L3qrb3Bs6AC/9bSPAVm/TitQqFQeEpQecjLQw/eunPj93y+FQqFQqFQKBSuAArRQmcPQigUCoWXwh9amiLH3/z0r0KhUHgheBiCLW4ehU8NFgqFwktAoSSPxbd0hhosFAqFl4BlMb7gCAF61NVfXFqhUCi8BGyHa7e6WTdYKBQKLwFPf7ZbhPpDgB6E2vsypEKhULgU7BG2Ne7nl+YpLwjQN8R909IKhULh0vCFR/9xaX95aR6cgADt9/2RpRUKhcKl4aEJHnIqDxgC1DzyqlAoFC4Ny188JcZzA/NVmJqc4D0PTSgUCoVTQKFDwePfLc2XIwl9Q4CarXGFQqFwSfyppSl4+I7fH1zan16ah6R6dJZdIR58Wt/9WygULgkE9y+W9keW5ouRfmppiNBXZPraSyFxPRyhUChcDl+1NEUPqu+vL+3XlibspfwUQFSHhcXfv7SZJ0cXCoXCU0D46mGoX7q037c0pPbVS6PqfnppCO6PL+1Xl9bm/pAg4vvxpXmEvidLf83SvnJp8oa+Kc76wSLGQqHwoUBEntKM4DzEgKL7C0uzjs8j8C1w9n0g/3ppcn2/vDRfiETxUXq+MCnf+9s2j793DO+zT1io7Dj/aGmOqXr8E0uzi8T5FExUkhHlVywNSVb+sFAoHAJqK2RHySG6v7I0RPTPlkbNqehq1vXZ3fEzS6PivE9xw2d8uRGi9F0hQmB/I8aW/BRGvmtpv7C0n1ua9zvn1y6NGrRm0PpB+UJEqWjyK0v7D0tTUUawvjsEQXqwgl0llCclmm+nKxQKhSFCeNbiIZwfWNrPLg3RIC6khXg8wPR7luZrMH1ZEfXleX63wlPvs/WNyvvWpSFQxPffl4a4nJP6+7al7YFQW4isoOJ4CBZ5ImMhtmumIv/u0ihGRIoQSyUWCoVPgbSQiK+s/BtL83BS5EHVITvhJhUnzEQ4bwWV5/l/CI/KU/2VH3R+2+M8FUYo+xYgOPdEBX7f0pA4lSjszjn+0tKc+4h7KhQKJwKC8UXlyE0oS4EhBnk2xBCl9IiCg2N+y9LkBz0OCzE5t+UvKsPOezScE9EJqYXlFGHOT4X+5NIQMIVaKBQuCHk8Iab8HOMXiipIIB2hrLD3vXJlCEnYmm1wKsByhu8VmjqP/nANFCKli4SpXvlNIbgCzyMcQKFQeCdE6VlgLI/HwFVVkY3qqeUlH5UPc11CYQRoO5zw+yOA5PRT1KHwmCrVLNqOMiwyLBROAIQmp6YSaj0dZSOv98NLU32lfJ7BmL93aZRfqsCI+RmuK6GyIo+KdJbxKNxIDVTOsFB4QlAxCE5xwRo6CsZyEXtvv3xpzwZPg1FsyW4QFdtnu06VbaSnumyZDWeiymwdY6nCQuGDwQCFsRYEK2AgkV9aGvWnavusBopYqCokmPWAKrTI5lmRfhYi/+elUdUe6Gp730elEQqFl0SIT84K4SkmUCbU3hm+X9cSFflIuUmkjQB9N8je9X8fCWRn+Y6cJUVIaf+1pUk7FBEWCg+GZSIUnkquENISjq9f2pnCMdeLPKwJzHeCnPGR+IhcFRkJGgsVdrtPCoXCwUB8djPY+kU1UR3PamzImBKV0xOKU0wegPDNS7MUR+grT0mxhgA1pK7q6j2qxIjyDPt8jQ01rtKuso0IKcIzOaVC4SnBuOyBZVxyTyG+jyaDbJlDbkhLPozhy5FZX0gVCc0tNpbfs+VNmOsntadCbSlOS4Ba3qP5nM9TV4hfIUJlVnHHUh7b3xR+5OE+OvRHdirs3700+c2MlWsrFAqTsNzCFjREIV+muuvBAB9BfK6FIVNxiM76OLlHpOTakB2j9zAEJCgslJNsl7msm/fZirYmwFGzp9cuFQu3PXDBDhaKMQuYkaPXEaN+s5SFanxvIEKOwTIf12eniT6Tsy0UCjfAgIR+np3HsBk1lfOeTzShpoRwqp4KFR5HheSyJg65WVf47UtzbQlTqdUQtH24vuSoR2YapeRBCnsIkGL0FBjQP/qC2rJbQ1+5Ts8SDDFnGRAlKkdKQXvfe66BdB79QgXqN4RNKb/nOBYKp4KcGQUTg7He7D1UDNJCYPJuiMZjpZBIrsPTXzy+XrjrfXuM2JIWoSsViMCEhCE04a1zbRGg/ckJnTVPprkFpIPkkLf8or60PIgKcy8I8ceWRiFStO9BRvrWljt5T7lbz0uk5N+LiAuFpwdDpJjshhDSMXZE80gwTKEaokBwlB3Csr5NeCq/xlDvJWDqB+khUkpQbjCLnr1OvW0RoNAfYQh9KWFh5D3Qt85lvzM15j5dD4VIZVOxcqqP3uHh+ByaXK4+sdMEWRcKLw0kJMxEBNQKUniUOnBcYapcHtLL8/hCOh4KcFQxQc7Lc/mEy8hGKCpn6DzCVNexRYCUGmdAMfk8ojoCSMd95jwUKoKl0BAUFf7IPCvHJo+Z8aaqSw0WXg4mveUe2WJlGcWjQjLnonLkySggldaWbNIQ1lHG714QDTUph8joqTrnQWrOQ2H2CBApWSNIKSkmUE1H7hKRK1yfUxOqC5Utcna+R46HFABHQOW6xzMsYC8UDgH1Q/XJc3n80qPW8wm7hH4KKZaT9Iw+TViIGOWr3goGTkmpClNWcorybxSnc1nIDQgwO0HahgB9XSbFKB2ACBHGEUpJnyB6ZLc+b9soYykJBZRHVXDNA3lKqQd9pHJdKFwalEWWkFB9j8g9MVgKCum0IW6vpciAnDR5sj1E4z3CSWGsPKJF2sJWIa88ImJDqFnLZ00gQ0c837g02CJAzsHn5A39nfzkP1yacJqaFbLqT2HlXuXq/Y5LeTtuHsk1at5DFap6y2seDdetkq7YpC+E+o9SnoXCh8GkRngKAEJDyzKOUDQt5BOtwbP+bER8SElDKK5Foz78LS+o6NALxxA1AsjSGJ+Rm2O0fvoccrJekWqjnBAjRUnZKESoJCM2W8hgRIAWO/uMhrCkCuwTFioKT5EsJ4KwXb8UAgKhGi2vscB6RIqq3D5HeSNlxRl9hRCdGyH21CEidK36yNgdlSoIXC8Hon/0obEsFC4Bk5vhMDj7XY8OqRCKKiniG+X3GHlUmNDU73ZUMGqf9TeCQiiIab0W0GcQnXPI6bkfKlNoKoQX8vrMiBiQPWKUgwzBjgjQ8UfVZ8dBxtQnUkWQKtYUmqKC8Ja6dp2+C4RDUPRxjc7nHuQjncP/kanP+F0awOv6MBXrdUOOrjnfaXIkEXKSiN41ype6t6OdZKHwbjB57XbIgzWPDm+QDhKiXnrEx1gpF+QmFLXsw99I2Guec0e5UVYIgDoSZua7eJGIAgSVhLwoMevnkNOsYSIKuUjKK6QxIkAEdo8CQoycAQUoJPfdH66fQtT/qr36yTggPSpV3+kPP+UrvR9Ju3eESJGtr0/Tt5wF1eY+jiQqxJr+9/0pR6vNQuHhMGmFgAxKuMYojwIFZVcBlcAIkVtrnNQeomPIlAzDpvyoFoZPvXkNQQgpheTC14TFcodUn+s/asGwa9YXFFkwIkDEI8x8K4wB9U2lInCkouqMYOUBETu1JTWBHBGj/uIY9IM+8X8k2FOECYuF1IoZR4atjmW8XCsH9YhccaHwECAMyixb2YRqR4BBUweOSdUwEGGSkI4iSe5KPoyBCwmj6BQOEKLr8ppiBxXIwOS9fIYRO15C1COhDxAJFRmMCNB9KHAcDePinNQhVR5ljOwoYSSJ/KUE9AuyTrirPzkP708/61fjoSBDYVKRrvuo/kN6eQIQpfkRe5sLhSmYtL5ukpqioix1OALyho7LaCkTxYWEXYoTyJYRUjgJ5ygTDxDwP4bpJ/VHzTBkBi13xoiPDM17kIdz3hRAYESAWvb+PgqciSILsqPQqU7Xp7iDBDkIjkXI7lr0K4Kk+vwfIbYkTSnrWyQvryj1cURY7Bh2CRlLju9RS3IKhU1IossZbXlhnt8iX4rKVqcjSIWhCneRFSUgJ7Q+LiOh3hgwQmPMyQ0iQCGuIobr0hg1JfYIpTeCtX/CSfcTbBGgnOR7hX2uifJFYK6HwtN3GuJGePKE+lEYTU37vefcHEdqgqNCnEc5QE4OUWuKUyOYGwpXR6znLBS+AMsreH+eWLV0TR4KEnJKDMiDP4/w/khXno4xMU75rBH8z4JhygV5UIAMFRlSe/7HICmVI65tBgiGY9A/LbYI0PW2avE9oF+MI+clTaDvOB1j7gEK1B1yQeRtKL8G4jZfKHLkScEd0efUnz7sLQz3u/WEHJ1CjyVBj1b1hReCZRfyZIxTkYGXt8vCJENUFIGJqdjx1snumBLyqoDyTIzt1mR2TkbnGiT1KT0GzJC9jiCPMMJ7QAXpO8WFFlsE6NoZ9EdAP7lmyluuUDpDv8oFCos5mFvq2TGE2Crv7pFjOiJ8NQ85ReSqSOU85p8th8Zc3/n5UX1XuDAQXrvchCL4ZGmqmzy9vM9bofpHuVEZFNtMZVHYQ+1RjIiTUqVoPor4AgUQRRvKqsUWAXq/XSYfDSkP4055uSbELM3QhvJb8HnpCOPJCRyxtg8JWsOJBCk9CjWFGY3arqpx4XCY9AgvE02OSE4G6TCQt2yVYhTUo+MhL7mnvUZG3VkqwRBUMylAxPcsoEb0kfxZ+10ZPQL0Psl+IT8C/2jyDhAZxWX8hcXULOW15/q8R6GJmvRZjuAtFV2fVbxBxpwwhZr+U9F+BsdRuCiQVEINlUChjcmoSIGALFuYJR/eWoElHn1v7ksYJieFMJ3bcoytPOFHASFTpZSQYkKejNwjQEt1VLn1sZ/PlscSGktPcFScDTLbG9pSbuaLezbOs8ujOEQqXwiuoi/Pa3mMvtV3VKB0x7M4jcIFYXJJNMdgeWHLIyibTG6hDmLa4+UZBVKgDBDpHoN3DcjDY52EZUJm+aZnhGu12Fqf+d39UUP6pkeAbSjnvp7VmDka4y43SNkqdOwZOySmku9zHNeenLH/U5uWVRlv6zvlhR0HEaa/KEHzqVB4GOTkTF4V4Uw8YZuQiAHYwZCdFzy1nM8olFWR9V45RHmmPaD6qA45JaTC8PaGyh8BRCdslC5YK9tRDlDf5t6eTQG2QEzuQaHDOkGFiL0KXL5YIY3js5e5N4aOL5qQ3jDn9CH1LGJQlRbutv0mP83xPqvTKJwcQh2GqbJKnbQkaPJRgCafycxDU4JyNPJZa+Pn+YV7CGDvti85RtVmxkYtviWP9F5w39ID1h5yCAw4xt4jQM5Egl8iHznsdQwfCfeDkJCU1t7jFjjTLLeROmmB+LNnmcprx1ufmANtvzlOlkxZIlMoHAqhBfKxNEU4wtPLAbWTUPgmJ5MKnJ9ZzsLQeXLHke9L3saSGluutry248jtmPTCn62FsM8GCpgBM0r3Qe2EIHoEqD8QQv4W9p0FxjbLUZD4rVwuIss8QPxyuEjO+CaKkD5oj6MQ0xY9NMdIpOG8HIe/C4VDYFJSJAy5Xeri0UXrTfJUoUkbb43YkGW2U5mcJnv7GQbjWD0g23xFJhXwnrs3jgAH4H5VdIOEtaMQWNOPcmtHPBThPYGEEDzlRuFnrd4aihmKXu09iyK8pk+sKhAlREk6hqgihJkWp5tzKNLYiufcVQ0uvBlUi9BWvmUdjplsJmo7ITUTGQn6f2AiI7D1e01gOUAT39KXwIR2PipT2G0pSc+Qnh36DsG7B8TQ3sOIAL2fw5E6QP5nS+y7RypO2M9x2abYpitUf4Ws5pR7Xd+/9Ep7z5kL65yfJhe8jggoRvlFDkSeuVC4C0jLXloTz1KOHgEhrXVIognl2id4mJTZSZJGEfqsRdSMHRGasFSecNnktvvgVij1rOA8hOyIgHJGBHJdWTbSI0AOwZIeSpkj0fdvWV/5kUBi0hsqt9Y2Glt9Irx1j8YWAfq9zSe7ZzlF8y3k5xhtP2n6R9jcm5fUn6KJvj+bAyk8AUwqT/sw8YSvo2qkCS3vs56cmtCPEqTeKMUs8TDZEaRjIz5ESCl5r6URQhjkp9p7tpC3hSS/UND2MdCnSC+KZSsE1vQTAm3V09nAidobrh+o+ezcsCZSmEqpec29tqkRc8PnhNDrUDkNwW2tJVRFN4/kUZ+5ml54QsjRmKiSyrcM0Bq8nofWTGwLpkN+fproDFs+BzFSRhQPdSSnyFiO2kD/kZC/Q+6KQL2dLVsESBlZ5+gpMld4sol7FZIaf45OiM/ZiTDMA2RmvrV9oO/WOb80DlRUsgXzR+5VGF4LpAu7QbkIVz/5/O+3YGIJdUJyW80yCWEvUrB2kHe3oJYKENJQBGeq8m6BghbOCecZvHCtDcdGBMhg9YeqO4fASazJ84xw73KaHCJisxpA+oMzRIrGnyPcM4/MzT2hLeUngtHPtTymcBMmjPVUiGrm4QbyWnJ4vcmqRflZ4mHnB+Jj2JaFUI8mqHVyV8rXIHjJfgpav6pittv1KOd1Yl8/IQdkkNcUUKQaroAU1RA7lStHZ0cHp2jeuVdRQ3v/62YOiRD2Qv8n77h3oXbhRUGtmIxyL7NQ5TR5e5OWYecbyORlvJfKFPowBArgKkYOVLHEvzCuNVavJx/VI8C2cRjCYMTZVtTPDn0g3WHczQXRgHnnKTOIL9XjXp9oVOTsXBHJyDnueZRX4UVh3ZWdG1TKPSEXwxbCrCcsUqRqeH0T3yZ/oa6fXhOiXIn8gJJlcFSuEM/j/NfqdosAqRVKmXLRdxzGlYAEqX8OQuSQ7x+REzQ3qDyhcq9vFFDugcXR5rdzXSGlUDgQPCQ1RqXdU3U0oeV01qEL5YcAkR1FxODz3a8UAM9/NfID+T1pBMUP6QHGrhrJCPUVjAhQesDTVihx/cdJUIFXg36w3EUKhNrleK0B5ERVzpGj+1/3DxV37xxFsIh2JoQuXBwIyFIWE8/Oi1mYWO0qfZM2k9dPCogxC3Hy+CJ/q3BekfzAEg73rhASwqMAEWDWAY4IsHUiiIHj2FOMOiP0jXSLuSfspQbtnlEc8ZpC0DqtogKscJZUwgzMN/3JwdQi6cKnE1ASmrFSKfdAsaRdwoD45HE0Kk/Ohuel+kw+r/n7ngl8FlAzwi1Jffca0muxFQLrQ0pQGKyYwnFcFXGgCFA+UAiM+PShPjBf1pGF1yxxuSeUtcpALprTv6oDLuyEycDrWnZxz2SiTExWqi6b+IVs8jdW+gtxTWq/WwdG0cjBXJn8AOlb+mJHAhLTv9bzRQ3CiAD1n75ioPKIFBAHc2VjDQmaR0JUa/yyUNrvnKf5xTHojzx55t5QVhoG4XL+hRcFg2KYJtrs03lBNQ2xIVChnclk8mpyiSaYhdTCQYbOiysGXJ389KtdD0jQvTJuZEcJCvdy/z0C1EeMXp9G9Qj59OMrJO49zw8JUs9WBpg7VLT+VBHnQOUJ85AMeet71o22c/+etE/hAshC3fYLrveCUavo+rxJGlA5FB8DtvqeMcvnUIQm3NXJD+SWOAFGLM/ZLrsQCieBP1KAVE5+dxyhoCrwqzzdRDFNjljumPK1XVIfSNO0Tw3Xz+aWAts9y4TssTZPEWpVhV8MHjDA+1EW95CSVfWqd8LZNqwDatIX4PDOCMBkpghfZf2Vyi9iE/4zYlXLnkrZygEK8ygfyX7hMDWICF4B5pO+o/akAfQBIlw/jQgs3RJpqLCv5+EeyHtTnK0TL1wcJoqkukTwPU8akfcTkli5PyI1HlkRhCHb8/lKK/CRvpwVhcK5IETql7Jpnc0WATJKVdCEwVShXOKrQD8hNSTIUeurHsxl/UptC59nYf4KrZ3jSruQChug3hje6BFXWxAqUI22eG3lThBgQpiZLXVXgP5huMK2OAg/v3Fp8qQJt7YIsG3CYCrI++9ROWcFQpLnU+wYESDoW7loEck9S1us2VRtVm0vXBySv8JT5HSPx1M9Y7TCkZExMnDFDhNSaPFKRute5aUYbQohbe6ureTeIkDFD2NF4Qh/GemrPeUYoYkgPlnaVp5PSkfKxTKrUVQygvkqtyjHeJUHcRQGQGAUBTUyC5MxnnIrb5jiikn1asll32Lm3ik9uVCFIqkCuaa1YW4RoCUfkvu2wslxCYG1K+4IuQWFNSkFaZut+STVIBS2VW7W6SpOiWqEw/fkxAsnAA+aBaCzg0y5mBwS871FvQGjpn6sgbtnu9LZwVit41McitqT/6SErVlrDXiLALOWMhVhOUHbw2a/dP4KQGYcN3Jrd9as4XV5Q2R5j1I2RhZYI9LCxWBySM4zuNnCh8+aeEKErW/bSngt9LsnF3MFCFeRlwKGsFU/xGCRX2u8t0JgTRFECKj/jZ8HR7yaqgYOmwLUr/ptBM7Z/FOAm3XA+tX81e5ZVlN4YsiRmDwMqDXCPRDKqZLJ643gmJYu8KD3hNdXAdKzM4ajkJi3DtKG/57ivkWAVB9FYwE1o6YGqZtXNU73LUz1hJ2tPpCfluahGmfh6xv0+z0V5cKTAjkhPrmk2cIHryj0kmDemnRCP+SnWjlLsFeCFIF1f9SwfkByHgDKeayXAo0IENExdGSq3/MwAEURY/GKCjDgWEQinO1onnmd8+G0Z3c4+WwezLqV6imcCEJe6o+SmAU1p5q79YBUeSlP1zBp2irnq0GRg/JAVHYXtN9mZ+0kZdIa1YgAKRDHSf4vaympE+2s3xJ3FBTX9JtF0CMgPvluYfOsQ7Zsy/GlMwonB7VgAa3tabMejeJTieQRR0UTx6dueOWzfYn30UBoChfUNhXIKQilotgYYmuMt0JgDRFaT6iAYkmN6vC9ux6uArk981KqYSuisc6V8+Y0ZqBvKUhPLH/FotOlYF2Txcj3qD8eUEX3D336Vx8UotD61UNfUKjQFxwNNWjJiso5wuqFYlsEqPhh7Zv91CrqVCFFiGBr29ZnobB8KDU4mnfIEVHahjkbmXDmlnyVCjwxTAxr9oQCsw/U9H4LerfWXmWCCc9ePV+iryltxOXBr8n3UdEIy/8QYtuXnBPCXJMfsqP2NASJ+ITB8oEKKkLg0Zi8CvQ3pyuy2Vryos+pwNmvFNC/0hjm9j0bBgpPAEswPO3CRJmFJDPjVNwYgTphoPd8gdLVIEVg+QSDVLEVnllPltQBImSM7dKMEQFyWF5PDtDDJDgioRyHhghfPQ8InIwq+9ajwpCXh0kgstkdInKMVGA9M/CkEPYKf2eNRfLe5yTz7UQQDqwnWMj1VR5xdQsMjbFwNtSz0Ixx+nv0IIgRAaZRfSqZ37M0Xx4vHYEULQh+tf3VI1DX+n299Mp81b/SD/rLXPao/RkIm60n5Nheubh3SghJhbCWTczm5hhbll4wOEYqhEN6IUJh3r0r7q8I/eABCHJ+WS6ECClpCoV6WzuRLQLU75Se/J9+9remmi8vVU7nMyAmfSQVkz5RuMjj9PVZ+pQzmVWBVLsxqi9VPxkk5E2ArQJGD9QKI8uk4Tkl4y0+ZYhCMSGBSVGFjy/CXl/9RW1QDBRa+gYRUnGqki1x3SJAO0ryt9wiNe4zFvjWQt0vgvMxZ/WLuSky8TcHkseJpc1+7w1nZv4j2cJJQGl42osk+qxS4Dmj/jS/I0HLOizFsDzApOJNZwsrVwWiE2rJ/1HJFjALVzmIqEGgyvcSYNscK8bNqJEjh1Rh2Wcw3y3FMleRH9UtBdHrW/nZ2S1yQmfLvIxt4QSg+gz+bHGCsbbqT6P6GLRwWjUNAVqLVssDvghhFdVn3R9SQoiWuFDLVJvwqaeUbxGgfrYGk0Hr/6gZn6mlML8Z8tbmp9QMx6+SbmG+YhQHnj5FkqKjGXD0ClPEQeEEoEbuWcQpRGtzJtacCcMoEIMv7OIJGeNZlr08MkR3bA+FpTZsA2RclFnCX2rPwzYVoyi4Vg3CFgFKXzBkfS236LXkGBWl5KY4Ib/PqvwZuI9H9uFRcI3mKCfhmYBITv9lDrdRjZB2RgVSmHLg1OUj+7pwAFQjVXB739WxBROCsWWSaIzTWihGxwNaSsDQhQRnMAqVQbmbdjnKEaD4HFvfUMjZ/qbglKUwSC/rxxgQhYLw2n7bIkAKJjlATsmY+h5cqt7CXuPgnM6NdIXHRzol14m8qViqal3AeUZw+PpTekaqwHw2/msVqF9nv06To3n1B32cAhZ8mgQm7wwYVpswtvaMcTFEYRwFQwmaWGdZGEohUU3uQeiuT95C3IhPPyEcfczAhKfITrgq9cCRUMqqkhSIHQujc+7JATJW+Vf3IhxmhAiRQpT3UlwxPlIXroeKHy272QshHweK3CkniuoMBAjJBYqC9M3nlmZsWgLUOPWZHKr3Wk9Y3yD35GAMeRrJXnivz7UTRDWT0vAkEz+RHzK552m7HwWKyKR1P0hDjohhM/CZe6AeLWNBBMjU+j4OISkGx0xhQu7PsTkJ72Fo+mwd/sIWAToeB+TzxoZD8jrjdk8W6eY+XF8ev+V4cpG9kPsWkLcqKdKIM3QNWw8deDYoVFicb6wpccVAfWjc2v71ntklXNlb/FYHU3gQGLyBNvlnYCLEwDRER2EgQaGXdYHCX4M/a1QfDYpNHij3hlhUAhn6rTwQcrGHV2iLCBCD3FL7OeRDmSEeiklDeHkPIhSeyk+t9wNvEaAxEMoZg7xG/clF2Z3jmiT528qk6xWqMXi5WoTsvbcUi3tAct7vvDmfvvLl5GdTPJ54ThFLGRgbNmF+m7/tvc3ukOJwjMdsEaXwTmDUDNVA7QWj8fSSTAyNyqAihHf+J/nrNeHF2UDdMgL31YZBFI4wleH3DNxrKq1IiDH5bo8eYXI6Qk/ERBEKh+VLqcU25PbZtXLYEwJr+h75IlLnMcYMOMtu1nBOuSpKldJBvr1r974s20EQ0hutUkLmrvFsoIbdh/bJ0jhwRN4SoKZPZwuFnITdIUfmlAsHwIAIfQ3OjMc2AUz8TAo5p6g9vxtwx2UgZ91/SuEiAglxyrY1AvkheZ2WSJCF0J+3p6a2HqqpTxwbCeb5f1QyIqTQ7JceGcseAmTEjNf1ID6vIT8O6lZoKmfpMfo+pxDQ3qNr5OCcn8pH8MLFnBfpuoczwvw3b7N0haPg/BC68c49mt+zy4kUAM2hrTlR+ABQfcKe2R0CJkAb9mjILl/kLdQyaST0zwoGQQUgAstH5DPb+0Uo/uc9+kOODTGY7Lc8veMxJH2ECBFJtltRfEgGgfXyTbcIEDFxaJyRa/SaMUZMDFCS/1a6I2ExMk5YaFw5PccVBroOecacQ0Ows+romcAOjIt0h/7K3mzEnnvUOMWo9D3g5MyV2TRT4cGQl0BcM0shEIN9qpkMDEBYIGxAEjymMJEKmV1U/WxARhQBMqKckEtrCBrjoBTk2hDhHsNgXBSGIokiBOOgmBVDIGEmg1yT6S0CdC0x2ITszoP4hOZeo3T2KH4OEhn4jPF0ra5Rv3BuLTFwiLOPj3o2JLKhzKlftmE+G6uW6Km5XhphBONJKUurVBj8JDAQiIyBzMDAmxSZDJn8vD81xNAoDoZztuLHGiauHClDkCNCJIyhvfc0ZEAtIP2tarpjUsr6UChsHCyF8Zo0AqUVNdgj060HorbNe+RfqUsOKsTo91vr2ZzXtSF+xGeOyA+6L85SiN+Sn4bAeznDs8H6RSpQUSQPljWf23vVl7NPiTEOnGmFwU+CqBsDMwOEYAJkMiAHyXshIHLQTCCFkCsAQSE298jAbVEbkaBGCfL0CLOnsjgFRIdAqA1FCufQqEzFBbm7USHhFgFSaxSM49jZk1SF3KQFysJqIfgoVFWBZviKWJwYQw+xIT9O0znac7pn93sFqIBT5By6PuCo9Cf136pA4X/PQY1gpw/lfvao6DJgyLz7zLomA877t5OfIRtYr8txCK8cd/aJMs8M6ie5Un3g7144nMZQkFQeB9aCsmJU+gux6itKK8oAEVKa8oC9gsUtAkR0DJcT8ndUn3QH40txiiNrkfNav4ngObAUaABxK/ysyU9z/XtC6jMA2UvnEAf6yHpNjsSyqJYA5UJn1Bz1jEg5t8ITQCJbTmgrXFuDQcjzJfwxIXhKRmWSMBwTxQRKGHcFID2hkHuknP3NgaxTAeumfxClsDbpAOEnMpUv9BoF6LhUodcyHgjJudbYGwJrlJlQziPxKRZjE+WpyAGIyzGpQ9cqFOcUW3VjLOX/euTnWlqivAIUPzgmhOX+9JcIJw/9MK6UtbGbgeKgcT57auj0MKHldUzqGTBQak9uSaXR5DAREKnXKEDGbQJdDdbnuV8FjJADhRaj2GpIhwHZXyxHikiEl77yEgEZD33HcVAIW2sy9xCg8xkT6oXSzDIOPxEi5ULpULJUnTG1Hxmpr5UcIhZOx+mtzyPvezXkKy4peCSXpVBCY2PEWRACXp+BIpHjzERdhQdAWMbbr8OgWzDwDDk5IXkk6oIRJfeHAKMurgQEyABSvAjc6y1CSuMshKhCUKTjb4QURYAIGRzHJE/XqrDgFgFSJxSlnCUFmNeNDwdmzOT4hMWI2DwQHiO6NbxGtbShX9sQ4FnX/W3B/DbPjZN0gj3C0gdR/+C+zYXYwh6YNwhwtoBSOBiUBwNkTHvBOKmWkcdnLELhliCvAvdjTRxjoPiQVquU5Dv3KME0joJ6QC4MwnGpwxiXMNjfvULFnoXQLWEpWHFcCNwCX+fzf8eQZxyNlWtg+CPycw/mA5K4oqKhnjnzUXjP8QmT5U33Qp+yj9nIq3AwJLgpgJn8n0ku8cswe2BIciVXDIkQAcJQIbRn1+/CxRbC4fVi6a1GPSFNYZawV985z60tiXsIUENciNVmfOON+JyTAhXSUiM9hQmcnWvq5fxybKE1RSQklAeeWUt6BhhrSrtV+y3cLwcwuzdYv8otXk0knAaUmkqtZPcMJPIZ1MgjWgbBMOWVrgRFC6FknmhjmYh8mYWtawdCDWxVh3sNySA/hoQMLaFJbrCHPQQotKZYkZQwDfFRbBS6a+yFuwHysxbOMXrH1hBDqvwJyV371nHPBgRnXKjkHowPG+IAZiDdwPHNRF+FA0FhIDJ5oBlY/yWvNFKN9o+aMLcUzJkgBOXlVVARQyA/h4TWOVQEeWud4KghKMRKsSki+dlTCXsI0LEoPUoN+VFoDO+W6jC2ilk+3zuu5niUakvQ5pL86OwDQ58ZITgh6whEgTB5pqorkuKU5M4LHwCe2wDM5C549i1vCMjxSlt9GIDQkWGvFyUjCoUf5Lh+0CsS1LfWkfUI5FZjUAhGqsGxHQ/5Ut4epc/o2s35o4b8jLNc1mjRcwv35H5vHRu59/pDVIEs9pzrLFCZl+dbj3GgWsxZCJf3grKUfrpiqugUoFqEaTOLOFWNGeZW/k/+yxKPq0CSW84TgfSgqCCvNnIKo73DexrycmxLjRRc8sh8fYyQredDVIxPkcP728/7v8+tiWoETksIvqX8NOF6uwyoBceqv+ws6v3/jBCm6ud1vjdAjJyM6GcvOFZCQVRR+ADI79iBMAple7AEgEGOSJMn5Cmvsh1K3wj5qd5ReMPIkZ/81yjs1x8MpEcmtxqy0afGSrVYSGwcGCOF6adcoSUVwlYKzBjJ3ckxcUbU2C0yyn1s5fzSLOIdKTzHkeC3/nDmQQHPDI5dukj1vNePHIf1tAitTQncAqdqbrVplcI7wCAKVYVvMyDXTf5RDokRUii9nQtnBPWG2G6t16IATOStrWCpnvcIpdcQkcS6R1BxOLcIrIXrodKpP9dPgSrejNISrplia/d2j5rrso5wC1lfOlsZfVZErXEuvT40NpzPLJlxZLNb6QoHgJqRt5pdvKp6iDRHRm5ZRa8qekaY6KqnFhPvmdRU2K2HAQiXby2RQUKck3zSDOmNQKlRdgyN8xKitsc1lubBHvLTrFvcM77IT/7zKtvjKGkqfhQJKGYoOM3cr/ngmL293oUHQhKdh+aB9oLR3HpqDAPjCY8w3I9GFjUrNuyBe5b8pxK2qqzSBKPCiDDLmIyU2r1wbQyT80KEclVIzHmEYbdyfmnet3exs3VzooHZpww9Kzgk9z9atiLPyomM8oQ9iJQIkdmdWIU3gscxORnjXqha8XCjJQ4MSrhlmcXZgTDksRBSL6/n/8JMHhxhIREhklydEPHW5njkKkcWYpHn8/lHLx1CeIzN2FO3QvY9leQ0S188IJSTM87mj37oOTzK0vE5xSvkuMx/Cn+0bMU9KkzJ0e6FzyhsXSVVcBqYvAxwRq6rhqoqjlbEe50xzZDqsyJrJC3qNUn1k9DWcgjFI4+K8n8VcYrKcgbqQHhLAVpvd4vMOCHr+PQZQrm1Nu8oICvFE8oDofWIrteEalIgPiN6cP8Mnpp1z7bZWQdIKVE2yNZieP0zs9TqWaHf3LNCyAh2dli61HMIPXASVPnsZoTCGyEnpKo4Y3SegSck5PF7kBinAHnKM8Kk1R8S0hQdYlKEENYiNo0DoNbk6DwKHukxfHk2ijHP1/NexxgZgte9DwEqLM3kTH0WKetnROPcrnuUlx2BCpW075HdugnthLJ5OKgwmBPVHxRe7l3fuHfHlQvWT1QT4hQ6mjuz1/lMcB9yoKN7oOI5x5nxRKizT2N/GvByBtVknLnpj4Zixcw3wDE6Mp0BjO6Twc/uK/4ohOwoO0pM2CJcC9llCQnjZuSM3vuQlTSACqtkOAP3P2oPEVFJls380NKEmaN8kWNRUYhjT3+5XufghBCuMBTJUF+UPGdGRchXykXtzSFSZpbM9EivbbbTqUZzCq7BNXMAPotIXZt7Z8juTXjNOVBElCYC5RzNH//jgKUOXGtsxz0+Oyj1LeEQG5nZEWKFAbs5w/1/ASaYbVAG0wCbjIxBfmzv5PtI8GSk+l4gymyB65Gm1xjg6P8fCddDMSEoYSySQHYmMrJjmAyUekEu+oVqsQ3N57ILBJn5G/mk0CEtgAQSFlF1jidPZF6snxYDDN659dVITQeMgiJ1DQjzVshqIbTzGyv3emssHJ+S28oDcgBymshMuGZ+cwDOQxU6h/unANNH1B+CRATUovfKdbkPfR5C5GQQuPnY5hWNleM821xCVhye6+vB9RunmWVgOEOfuN9TwIUykgyeG+btTBbKgRd4ZhVkUlnaMfOwUpNeOGghbs9TOSZFKWf2kZ7MuV2rCSgXRdkhIcoui4OpJo5LwQKZKWSoilJ2CM0x3CenRiEiLAooayazqJmC8V6fdWwqSD8gH2GSZRNC3HVVEAm4hpE6DNxHwuk1Ke1p7ofCdP1bcB4OoXcMhGpcqT/3zPC9H2EhcE4ga/7iBChE6hfx6Q99qf/ZjUbtyKPqW33H2egvOyIQIzLWn9Q3p+o9CJcj+GilaCzlNEcLvM0NxL535w2Yc7hkRKpPBQMofERyJrzBMMhu3ICZNJSEQfvIgdoCr2zCSujvhfvm+UbrBhlFNvC/JxiEJT3W4AnBGSviotgYmslqQvLcJi8y8V6gBPUDIjKGjC0LXRGoUMYxYT2xvR4VqPkd+YN5YS7IieoTLQ7R5x0HoWzBMZESQliT0kxDYK7llkG6XwS3/rxrpVA4zFQ//c3xcxzmOELnIMwRfed3xRD/8x7vzR5Z88P1MHZ9gvjYk/e6Z9cgzUBJGUeK11hyXIjReOlrahHRGjufey/oR4UvpNUDkna90gB7oXiIAEfFxUfBWHFC7oWDMb6UPl5gL35ywMZCX3+6ZE6C0yAymDUMKs9n4ugkRrMFx+BJescyIZGsgZZP0vzO2N8Kg4QYQgR7IFSjZpCKCW+Ce6y3Kh9PrxP9f7RE5q3QR1F1yCN5MEqB+uZ0EDS1ZzIhDwaWRH8M0AAjJE6AwTJA72WAyWPlMV4GHAnqL/9HekjStST/Z3JADD1e3GSiGPWxfomz8XlKeitHxKAl02cqtLfaVj4S3J953X7G+Sk1Y61fvce9IyAG4m+EgBwz1/VHlKH3UqCO4b1ekxaIImZ0yDL9S0GmgKAfzTXzXl85n3Gm3L3H767PT/0rpWAczQ3X4vOOeTSoaQSnT4y5HCpHx5maH8aN07q1U6YFEjLvMkcfCX1rbupH81C/iYT0pSZq0O/mvZ8EA+fjf8b908HDnCNgSh8wgYRCo/caHJ7OCXreREcLoRgVL45QqS8k8FbIsZg0M0sTDJJQxX25Hnkhg8awEI+fSMikeAv0C7J1HAQkWW6w8qU0Bks4JYSkBkw8Xooh6XtGh4S9J85FP5uYjm08hFoMChiwiZDFvQwoBuy9DJgjAoRpEmS8GJprc72OzSg4h5yH8TIExzCOPidPFiXVg+sVMr5V+fUa8glB9+CeOZS837iaI5yE8QeE7inG+sJ9ul+plNwzcsoyKD8pcnPW/81nZOgevZcziANxfEYXB++98ojsIEqRAPBZY2a+Obc8vHOyOddrTlKK5rc54VqNC6eGaJ33LXAtbJYtcLSERKrfSCJ9Z17uhTExn2dI8x5wgAgPsXHIHL7+Nadds+t3DeZBmv8bM/cXm9mEDmKsDqhzRl6Xwfk/D7ZlEIzIhR2ZW0PiJgh1tBfuI8SumWQmLK8bycx7zBA0IzIpeT6fd48mvcng+pC+/jFAku2UBqNBOMjE3yFxZJSqtn5CWsjT765JdZLiAIaJBJPCQJxIyu8MhNFEHbs+JJecj/OYEMbZ+6mmLHqOUSeU8VmqhsGadAyUGt1Sf1T1VkHiLY3jShFjBPfmfQgYCTHkGKa+1Te5P04KWaeQYx4bJ/3iveZu+tEYGJ+817j5f/qRc0/6hNGZBxlb84Pa9zogQjl4n3U8BOjziMS1cpTEhyjBPDIvESN7M2f8z/s5SvdiPFzDHnifsXROY4X8zS0E0fa1ubcXzo8zEPWjwH7NPzZrPuZ+9Zk56Zr1G5tcw2elLXbbNuNDWiZRQp8WTm4AvUcbdZaLMREM3hGhb2Dg3Gw89R4wfNcaQ6LEeEDekLKgcLzW60DGYKLqeJNOfpQh8kbujQd1PY6RYyIV3t172jAzA6EPGYzQjEE7B+ONM2EscktxQEgf6XmvzzLU5OEYkokc9aqvkXEMLtcMOW/e676MX5QVx9Y6NETNyMwJfReF2AOPa5LGiB7ROJStNAWniICpJ/MDAYYw5bU4C9evvxlsnKhxp7Qz/shLn6a/9VnI0N/INXOa+gsZAmeY6rLPI7zWIVHsIWFzw1wKkRpz5/I5Dg5RuWbjIgowR80phIMYEaTfKUzjaM6Zp8bV+XtwfsdBhJSoY+jXtp+TD94D187O9cEjgGCJCHy0zk2ax+7FNRvzHvTlSMh1wdiEiA7KC61h8Bh6Omv0xSiMR+cymqNgUE0uNz2TqHVPiM/1+ilUMhFcu4mDiBAZIkAcJpEQNnkRkwzZuR9NCGGyUkiOg7x8TkcbrBAMYzU5YxwMJ4+kZ2yMI/eBGHn3KCyvM1Lv1Xj9GJIJ7tpCXP7+NMn7eVCL7hlMAEaVMNC1hBzBvWpBq/CcV58L0zmQLdWNkNPHj2z6t+eowL1xRPoVIbf3YkxCCvpL/7g/8HcIzXv0dfoLEXEg+aw+51DzWX0dA3N+45L+dUzjnc86rr70We8RgeSzxgAZ5t6MWcJzr5mHxt/vCJry8X5kxelmV4/fKSXzzueRIpt1j65PDln6hZN2Dtdgbrd9zC5yf7fgmNSxZUPm2tHgAJAfm00/BsRQ1CsbPgQGnqJxUMy+PiljR4AJdXTourP8bRIKB0cl9xnoZB4d6RhkHSJPRqG2k3wERJTBXTdGGzWLzHhG50CyIUqOgJow8U0mf/sd9JfOz3U4FyPQbxrjCTm5D2oqxOWz7iF9LARKEUMfMi4TF3zWpM17XceauDIO3hMDBsdo3zsLRIz4XUMPXueBe/17dOOct4iYE6GcRtd6C/qOUgv0XcYLGHnGwO9tdOP3tp/9HTJ0PZx3SILxMm5wPOSYY/kM4ZDPIr4oLGNMrUbNujbkqE/YCFXJ9vQB+2PLCA4pWv5DObIfhNmmhdqG0G6Rmf+bq8iSrRAF+j5zNnPxLdAvjslGcdEa+sT1st2ZvOUmeJiEMuucTyqNvL0O9R7vXXtkE0jnz+QSWug8x+QdGR+vr5PlK6KieByvGfwtEnQsYUkGt206lgdJUcTxeVRemoI1AXsDaaIitkwSai2ho/e7vhC/yZDcEujD1qCcI/3nPYgt7/UzxgbrSdn+71FwDgTPEYzA6BM1vEfLmr0e9LV5uzvncyC2SNc4Z56aExxf3k+tJscL5l6iCO+h5PJZttUSqXmXNMsajmtsEs0gNn0j2kGCSQutm7HesqkQNvvDA8iarTt+lnAhJyLB3M58noXPsvM2qgrcP0J3vcTYTEpsEy423pwCapWEG6W8DCAP4z2UQfse0Nlya4x9BoiBCiLLDVRyE0jKpJdQJvvJex5Q0+Ft/sH1uz6dTzFRXJH4CI8HdGwd6zp5V4Q2qxiEUAlfnHOtEtrj+d+avM4CRiTvtBViMED9+15tS+EZT7mtIyKPR8G1t6IBobTOzP9DGvqfUwwSzoI5JRyecYTeyzlw2kJgUZXxZccJJ9mdnDNS69kH5cfuFN/YpGMotiFa/0uKDMkSSOYOok7+ey+8FxH3PuNYRJbzuBY25n3py5nz/BZg3Bw4Ru4EOilVNaGw9yCUln1dmAlIBd2CgdRhiNUgOBbv5HcyX4e6SUzvHFnKks4l9b3P55CgKqZ8nWPwCgbCsQxQQlieeGbCjKCDz0pqMzBGHAZHMkKKJO/VXE/rcFoYYw7vMEXwAjCXERy1KDRnjwmh2ZxQWVpIhMTu9b/UF1ITSmdcECi7FyGyQQRKZBBNCZOpQ9V3xJoQ/x5QyY7pvIQNW5fblAPVXOtamO0G9ndgNyG3oINMcjcSz+UmSeh1Zc4NZ7X8CI7pHC5a57oB59M51B+1R2IbCB0vJA3hts3nqUBkl2MYBOenFH1e+CBcFTZUm2/GXR4pleQ1zA0Tej02j2wm+GhyC5XMWwbg+hlk26RUZtu6T569sR3z/i0NeREX7JEgIjL0PTvT/D9CqW1s2BggI2tSzRvHoxaJkXyegGHbeCCFoRn4TBQrXhKRiURcs1UqFO7sMb8AeTUHxtgOZLLxqm2lEekhHjeS5TJIj9e4tejQRNShIa20FCPahmB5C8nW9r0aD4AAMzhpveNUe1tjWD2YZIpCbf8/upmLIwIUsSBA73PdjKRt6/uqtq+1tup3jgHZ5bU0xCf9IBLzvvVx1u/HHwhslNIYQa4+n8+SMDAf7ya+QI7NwRFcqprygm3IFwnqpjA8+OlmbklbKhKxUno8dZRg2zFpjs/bINV1B1oYKs/ns45BjuuQ9j3V3t5MZHOgB5Mtk/G9Gic7KnIIfdcOsdoxLWkl9kbRSS2tRQxFZ92i97Wvp7Fhdsp2KTVh9GyoKoWFNxxP8e3wbXghQOoL0ytoUFotJGNJWB3gRuSK5P7W77sFzC/JKrfIkJKQbQlRIpVnpwL9TwcKc+UrdDhv43pMftLY9chRMBR5zJ7nqba/GWNh7gjUYe9zj2rmiOJAD4oCDLX3uWr7mz5UBCV88AGxQgyxVfbFtthsKr/EkHFBRsLm2Jy5g6QoQ5Glwgs7HRU39oDzczzHxw0pCh0GFR0HFzK4UZ2wlqhYWy7G+9wYomxzhPciyVjKTlHDjSJihGepAOWocCLm939k2FsGQK1SovIRyWke2VrPZ7D1Vfv32jOevUmKj8Aw3vN+OcJRIcu8uXIUYG619yc/e/T9OiYhYclNLzQV4gp/CQ+Chy3GNtkkwkvRRA6Zvc5WgLeAZKU5iKREn4fCEpF0BvLpEUzyfd6DCKk/q86PhvNQeirBPI3zOK9BsupfdfdWVXfvMg0dukctIl3n9zvDVxVLRcrn/R0FixjbCer3NXnm92du+n00gU3u9Mejm/5inCNYDXBG57O+5nZe+F/+Nn/sLc78EmpSXnnvqPn83vm9ZyG0Qqb1goiISKHE2ADVSC0iyaMIbw2kpx/w1CgSeBN0QDqD8uqpOrJTaJz36YxH3TA4tryj87h5nbBXbfJOa9KRJ0KglA0CN5A8lQINBex/ikDrCYPQrGtKoh0pUyQ5PhUsv+F3n/V33uu69WeO6fg8pd811xQl6XhtKOczmfQf0TjCdodECw4ohbNHNwY/ug5IbuhRzbi0c6ltxqd1BMbMmOdvRJGxX48v8mg/6735v2PYCZH/mV9Zq2u+WPGwdkDOYz6xUfNZNZZSQ5bey6GZl23kkiaE3WPL1KFjUoKcvmLoKDd7FIw9stUft85lXt61VE35WkeM1B+I4bMbxPt0xHvA9cgDrleGb4G3ykCbGAbLPZLrJo/JZjK03sQEoD7JbSpTpZPnladEgCEkyeAstDbhSH794W+Tr3UmQnHn8rvPuoZMcp81qDEupJwUg9dM+BCg4yNev2uufU2W+d1nt4hzZMy9tlXdt/6uZ0xHN/09UvzGq+2XraaP2ntv+4xjavtTSJf/62vjms8ai6h/zRj7vN/1O8LJZ4WNxjGfRRwUk9+9xpFmrMwpx/K6xsHE3hCiPFwKDchMJdT8dAx5NuNBpKyJzNIV10RFm9fmK6fRErU5vhcIxhzfWij/VrBLxRJLXNgEApTrNd7+h4g1v9t8wWYJJFFjHhU3hWwxoV5GEpP6ymAy5Fth6FGQb+LBkNpeKKC0JOCaEY6OpAAzAbaqUSaSwfYT+Qv3LQuiSk1s16RabVI7R8gwBmmiW7gdktDH1KzfnduaRaG1vxkUcs41O3675spnM/kZqvdmAjNWk8Q9+puxhkg11xOD9N5cr8a4Y7xajpHmGkYeVb8whPVnjmwc39YOD/m/LRJu5wBH1DoYY5H/6wd9nGP5O6pe8784Pe8xh/JZx0VW6WPHjSr1mjkQ1W8skE0+670+63ocF8nlvMZKvo1NmrfW+pl77jnbJzM/t6A4iDCRoDlk/uRa0xDNXuAB122d7iOg6OJa9UfmluvleIyLOcG2jId+ZXdsQX8Jxe/iJQOqY0bqD9y4wXBCbPxewO7IRsJ1L8jm1rDdm4nFwwoPTAqde8/uAROOp+V5eCETkoHwQPJRBs5A2cPcemz/N0jOy4FkMbHBpXJCTIxE+OK9/qZeqVbH9V55EBMwn/V3FIl+4pm9198MRwjunN5rnGPIJo2+CJHqoxiq31UCjfWW8maIOd7RzT1QOSMD93obJmqIpb0eDjv3xIDcb+aFsdF3MTJk3/ZrViD420/kpF/8zckkBeDzxrJ1hMY+zs3rnJ1r817OK6suvOa95qb7NS8pGI7UMYV8BIn5dldot4CKZLcq947rvsyp3Lc2WvTeAzHgnhDy0XCP7ISy1RAhMcB+jJf5rV/Zl342luzF/eGuXgFnF7C5AR6pP/A/g3c3y94Jas6NU4J7kdDIpDJ5eWk5Ph3FCEx8/zuqiKPj9YkJS7oLRxAkwnFeoaQBNdkYpCKPe/K31625YwyuiUKIcTFa1fYYNcMzkaMgGEyMGJEZQxPG/xAohRoi9ToiZdze73NRG87rWk2uGKmJ7ryOuTXe6+1RRzTXg8i3jJ7z0j/t59xbq5YZCSIJcSED5BPj9z/G5XdGpb/yWSqDkbfEFbXmNeOQcTG//O0Y/o+YqSr/cy+Om3SH+WjeMW4ELQ/NYYsuzPUQ/i1ltwfmpWvjBF2/a9AH7pl9pF+ysWEP2Jai5K3ND/fAPRNaaSF/dqWPqEMrRjhljsIc4ITN1TdBR+3xMC7oPckPhKkmzcx6Q9cp3PFoHR2WJ7LoVNdvuQwiesQgttCvzqtvTXAGhzCyd9Ik9HpIi2flyRiuvy08FUIxbK/5HNLzP6TjvVF/wi7OCRF6P1WZMNpnedaEgDFY7/O3Y8a4EQBDBMfTT1t5FZNWP4bQ39pcf/ucxB70Z1TUujFu5IN4/M3hJbeGMKkgjsT/3CuSiypEnsjKZ71fn+Wz7g9RhDARiZyaY/q/cTK++tRrnJz3GGd9K4XjPRya+cew32y4N2DuRTwYJ/PRuZGJMXaN7t3Oq73wWf3W7hIrPBAmCsM1cfbCQCMTRt6D/yMdBv4RcH6hvbDehGIgFJjqNeNnREiK0VAiDAwZSmQzLiQhbKHoYpwchHvyt3tHtN7nb4ZJyTkuRajyTRWEBBAYJ8Pw2z6Jt0c2nMcIjItBCLlDqvc0ZIEktiIRYNBRL+vmnhFXS/7uL8SlbxBZPi/6oY5cNzKQ0shnjQGFpo/0o/chPQrQ+x03aQRK35gaS6re2HG8flIwRyi6WVBIHOQof04ccKSj//dAffmMey28A0JWM4laCoEiQhq9ief/CEeY9RETcw3XkEZtUSUmJc+M3JCVBLiwiSHKVfk/MmOIVE2UC2NVoU9+jNpBrDFiZIYAfM77VRD1Q4gT6bXwXhPez1t9JURxrISCzr+nIXX3JjS8FWEgFcqqd5w0RCwNEXWMpJA+0kNW8m6Wfvgf4tc/7t3f1DDj9ln3YCz0rWvUD97rHv3OsSA3ytxYJUJ67yhpBE7J/RmXHtwLhT/zKDFzy/gKPQvvAEaHzCRv98JnqCM5v15o7/8UEZLo/f9Z4DqlABIuCWsRN/KjRhioPB5ypHAYOJVIITF0RotUGKr3eo/PhkCEd1QoY/Ze6mcN/aMvqfA9SsE1I3Hn9Jmo0HVDvlIArsEWqy2FGXhPyNr1jxpyFzFQyc5D2emHhM0IktEnJWDJkz5zPfqBeuZUnCfvpSrlTfM8vhTBnhnI2/WP9upzfpTr6P89SLvop5nPFN6IJHBnyEphgcGPDIvXVg3bY3jPCMQoBGOcDFZYJodFwUmuM2wKGGkhOOSI4IRwCMJrPpscl8+O+sJkp4yoyZGa6AFBIENGg0CoeOPiuhHvTA4M6SAlhBqi22rIjePIkhT351rMCfePHBFvlJ1wUfitLxCia9dfXkfqZwTHJRwfjSsnJZqYsQGkKi3yzMLhcpCXEgab0HshwUuq89Q9CHN4snXId0YI99yrfmK4cp/Uov6yNAc5Uk7IC+kjEd6f6kEAwr1bOR25H+GUUPG9wx/G5t5c65rothqyR3rCPOkCIaFcqd8pI8dFxpapmCfyfdSivrkCOEKh/igkT2S1N2TnCEKahXcEBcFzz6gPnpuhI4ceEB/SED6eHUiPpzfZwUSNanGf+oDa0ifeZ6kN45cGoHhM6i2P7vjUFwLy/iT83wOu23Vm8WuP6EZNekBeTv7PNSNE94nMFQCC9BWn6TwzObFnhTHjsNx7D+5ZkYei2wt9lx1VhXcEAzb5Z4yO+lEBlLzvwQQg5Xt5rzNCSE+dScqP4J4RQshOWkG/bik64RHCXFddFWcQyiNTCNSba6RaFRkQeIoVexrla864X47gFskrljDuEOKZQSy4/9GmBf1BCc8sgWFTnMroWZGFB8FSEd5q66kga5jEvL5lDqMJLf+19f8zIdXRvR4dUVIIcmGj+0cK1BdD6hEMRWg7HAe1RS6zcG2uy5gr+iDCXKPfZ0hQeLtnfFU3nU9l9AqQF5baGKWA5GAR4Ew6gzIWiVHKhXcElWEpSPttcHuA4BgQQ+6BJ6MwHqli3guM3HINRnxrUsv5yBEqaoyqeQjNe/YUHeRS5RgZ1a01fCM4H9ViiQoiZ2hymb1CiUW8e0lQ7vhWxdL8QOTW/11lLijo6KPR3BcaKxTNFKI4OsuprpA2Oh2EJibpHm8eILitMj9vLwzeChvPBErZ/SKjrX5SGaYORp6c0VBOlpD0SGXUpBwkyFV8GYswC6EgN6TrmjS/O4eQCplR9paoIG9GSZXfysOloCMn2buWNPdwK82hGqxQcpXdDfpbrlcVuFfg8Jr/KYLMKHfjJGViXAvvDKEdxTLjsbK2K1u71hAemPiUyxWAXKgm5CZf1gNCsiQEUfWMg0GouO5dbrJuCElopcCE0KzFtDvCkhzFFoUaZGdZDeej6hoS8345q71OjtLdQ4LyViOjNZ9USyX3r6D+gMM3r+WFe+B8qOzZ9I/3W7DemzeFBwOZUQcjMusBwVnjNdpHbPBNBPmmq8Dkd09C/97kVlFHTj3SR35U873kh3iFXtSZSqsCFOJDMIiu95l1U1xxDXtDaSSYvb2jZt2fY/b6w9g753tVtd8DxlbedsvxGyvKdy/MDeki0UXhA2CiywvNDJoJz/vLZY08HUXC+49yJWcEZ6Fqi+xaWDyNLHrLGExwC5XvIT/ncsw8eGKdUtD3wst1JTmNgkNCObe/qUGh655xMTeQ/vq4bRMJrEnO9Tov0r6SqkH2QtXRPWV+bD0Pcw3jau3kVdZIng4UAfktNzUDq/qFYSNFwcgMrPzZVYDMKC9GkFwaElJEss6tXQMHSMb/Zhcay6/JI1lALOQWOlN9vVCSIkRCveNonJu8FCKj2LyGEOWy5GpvEZR7ygMeRo2CyTzQR4oeCgWM+yrQ9+5T2qEH88CaTnN+JAp64DzMp6uki04Hg0WtmbQzAyf8FTqvjT5gmPIlM+uhzgA5L5Nc4UieS+ED+Zn8bf8hPwpopM56DUEptkiKO67Py+tZSjIiKuEYtdU7XprQ3NNwXGOb21Nc8TqS3Rp7Y5xtgL0mLLRH2DFUm53vKsteAo7cOI/yfyFIzmYGqsac1JWcxelAXQiNZqpQ8lEIbh0OBsjBwFrvNkOsZwDjTohnSdBa7SA/6YG9yg8hWQYhVKYEHJdi83d73F4/IifrDnvHbRtytXTFImuK0nh7zbmNI6W6pdZvKUHHE8bpF8e/WkI/W0BHDl/YS8nNbAAwnlIcxMfV+utUoAAM3swj+YU6QuD10hCvZ92ZCYMcbq0XOxvcr+o5BbXeFYP8VGX35vwQEEdhgS3iUMHVr8LfGAXHZPlLrx/l6RBY79gadWYcovoUTTglqlL1MY/zivpEYqMVAc4l97s+h+YYzqUKfpWqb2AczHNq3rhT3evUj1yswqC5vxeWK3FKM4+kKzwAqXBaZzYDeUNGwysyDuEBRUQNCBP9Tp0wtquBWqJ2LH2JMfiJ/JJr22rUoTwf749EpRPk8qg/hgHGhaJgIFIKPTA4JNY7h+Y88n3CsxChxvAUviy+lc+VB5bfdE/eL6HfK5TIffpsCLVt7nv0sNwzQ/FJ6kChi7PS35YbsRf9Z5z0IYU8o+R8Vlh91FdIFO5EPJwlHjOgUhiVScF4KQDGgQRUzOSXeE1GfTVQSpRXktdUk1zqLfKL0pLno5QoByTFwLJWD5HKsSJI+4W3UhMIaYsANec0LhQmp5S8pHWFSM8xXItzyz0iZWpG/tEWubVRI90RCXIIbURwBSAofaUAkqfcEAzmu9eNJyc2u6Mq+b8rFQpPCwbJkKI+9oDno/Qy+U0IhqOKaULkeyMYy8xxnx0IiWKT50MOCEvy+xb56RuFiDbEpOyoAEpP+kDRiJIQClNoIR8/eztrkJfP9863boiPc2LQnJ3xQmLIt13b5lxCcuPGsQmV1+dGgr1tc8b+SooGmXNs5rMHt1LISE/KqF2D6bWZFBI4Hodh3AsfDBOaohH6zMDkaA2AkfGUDJ0CRBQmx5WMQg6N11egQOyIvqeG0tw/hd3z9JyI0Aohyf3pP30a1YeMqEwk1Kuo3yJA18V4W3JGro7FYJ3X/3vjQxXm2/OcQ163ze85dy8niFCv4vAUN6g0zovDowCFu2ylHXP3vM4LbiFO9EqbBU4NE1vuh3HPgCElpNIYGmXBOzIuBkRZ9hYJnxGUkrBf4YORI/uR8tMP+sBaryi5NbxOJUeJcUBeC/EJQ6k2ZNMDUkVQvfOnuV5Ko10LaMwYMsenwNLL9wEFhASkMeRzqULKNKrF59dLZNyLB0hcIRSmzM3l7PHlzDgMBJi+dL/IcQYcjmNIORSeACarvB1lMzLWHoRGPtMaAIXhibiUEYMxYZDg2XMdjN76PwaPFJDf6MEGFIO0wh5VoMhhC5WkuHFAmI6tMGGZ0YicYA8BalHm2fvNeDVhrFzuLZgTVgsYW8eyyyfErgDmWtvzMe7RlrGzwHi7Tzla6pwTkOdzr5xb7hVB7unDFoQG9Xyl1NDpwRsZzJmJy2AplHbyMxANMUq8C4f9PfMVnM8IapcCQGzIfU1+lACiRzAIjSrYKmAE1phRV35Syo7BgSAW/ashOmprjT0EmFAthKfAolrrOi3X2fM0IGTg+hCbPJjmdyrSKgCtJUHnFPZvkfezA+EbFykJ81i+mzP3WkuAlPVo6VAP+oTan31oQuHBoFYMzGz4wvshhkwIHjOr4j9ZmmMyGMn9sxqEXB0Ddy9r5cfYKb6QgfeqEiOmfB3kVn+qtPo846Kwovp8xvEst+BEersFbhGga2OwWkI25Ex1UpyOPXp8V0DtInM5K1ECB6m5R8bvmh1HyN6Gw0LvWWX0TFDtjSOXylAx97Nd46l/jc0MpByMwZn75pJgcLySSTxDVGR8u0sAOSBBBi2EkC+jMrx2xkHXL5YsuC9GHSLRGIj8moJCmzrwGesfhTkKCJwKYuxBGgGJIBMqz2f9ZIDyspTzKJRGgLeqwNQKR6QoRbUxWveA0I3HKOVhDsj3GVtrOylf19YCKVuqg2BdvxC7XRmAMGaKA8+CrHCgkt23iq2x5+jb8Vcl50hmIIzmSEfzofCBSBhMlczAxGdYmRgMAjEwYAYq9KJUEOHZgGRao9aQ4eeWditHhyAoQx6fYxFGr5c9+Ly1d94nZEaWzsd5tOOwJh/YuwzG2Lhei9WFdAzXa8ZEqN0CITqvAoz3KdKMFmKD93MA1K65o2qaucDpzWwPexZw2shO/yB/Y6E/1n1tjs+IBX1FUcoBjhxP4QNhUBgfWd8zuBEoFmFuJgYvyQhMGEqG4fF6FNPa4J4Z+oDHjkH7idwR/t4Etj61fxgBIgTGJAyKATgHFSUMZhz6keKMYanQ+3yPhLYIEEkbyzY94XfhL0cnRye5nzV+rkO4yzgRn/FC8GvCHsH1IjtqtlVJZ9sO6X6pY32ACDkk4b+xb8Nfv4/2wo+g382BLKAvPCEQlkk7U6FizBL3mRyaCWQiMWxGnf2UiiYz5PqRkL9zH+6HunHtvQXJexCCQHKMgOqjCL1ufRkDs9QiS168bkEy1cwQe4rhlgJMvzuGvs/rQnOqTXhqLJBrlCpjt+ZvJrHfwjGtb8t1IWIkchZYimSsOSrOTn/oP3M5jlDjIPYUuQL9bP4Iq9v1lIUnA2NAWrOLopFFWx3TGJ3JQwEiSP937F5F8xnBcF2ze9AvRxC3yZ+tbghHaOp359GHiI+yQFJeV40cYU8IjIAcRy5LAQf5ep2R+zv7hBmmfOO9xLcGR0E9cyDOfwan5xozFhwHxxTn0ZKfNnoa9ghUsJB69nOFd4bBkbtTxd0b/gDDNXkyQYRBjEpIxNDlklJMEPL1FM2zwaSllB7hsR0TuUk3yDMxsCgNpMZQEjrqK3k5VeEWCNCymdYw04S7Cdkcm5pB6BbhIj1joihiXChNiv9ow3TdKsZnSXvEiWfftD6i2EVEbVivL2fviVMzJmdx/i8Nio1Rzg6yzf3tRGF4jEziXW4JIfKCjPbsC2WPAtLJk0H0ndDL38iDA2KU8nb6du2QGNOIABkvoqMwQ4R+Cr1Vf/U/AuW4Cp/1LdKjhoW3lv5IC2Rc2r61JGZGHHB2KuLGo9TfCZClGZL9MzApeMtMFATIQIW9QiHLbKhAYRhCnJlEVwayY2ycgxBUvyiUCMOEqUiwZzhbBKgJ3RidfrdMJURIwXByZYxfBKdgXiI+eXD9KofKDkQt6VOpg620RA+KH+b/6IvECk8IE8EasNkKnoR9DC2NCpQDFCJLKiNJE8zEKHwG+Sb9pEKor4Retl+1Vdr1mrpbBKhxQpamKEy0O0AowVJ/n0G/UmgIT//4nUOiBNfqj0OacdycG1tCpEflVwvvAGEYRXJrp8Aa5L6wq500lIiF0dZN5enGloVYW1VG+BmoPMQkdG0XKSM+y1OMwzptsEWAcln6PAZM3djCx+nIcalIlwL8DPqWKpbvlRYQnXBGWqv+9Oms03Y8Dkgao3AiML57n1lGBZosJg2jZtDt8+0ge0stBSl8tqRCmMQpUArIifqThhAK9xanbxEg4qNmKBbKhhL0uvdTm5V++Az6XaQjTx3oe2GuvdmcSPqULcw6DcrbPD/T+tfC52EpDIPhGWdABSI9ys+e0Z6xUX6Szt5XocFn/ZHtZCqyDIeStpRktJ1sTwhMfcj3qbxTl15TjZzNY10RyMw+ZmkZSm0N/xcJCV/1mehlBsjVGHJghRMCkUmiUxGzno+yozwssRhBOKHKdqaFso+C/pX7oxZU4KUI5APT70hQWNzmZKkK71+THscjWd/+LayjIi3GpXjuXdB9JXACWfg9gu2McoH2Us/Ct/AZn8p1nxgIjMqYHUSKRghtj+hIwTBuuREkuLXf9FWgQi50VbUN0ek7+ToqwgMWWkc0IkD5Pms5JfMt6/Ca41KD1qM59qxDuxoyPxWDRhGIPrJOUx/Pzk8q3mJ2KY029VM4GQwkEpMPmTUaIQM1I+c0Ag9LkVj/9up5Kf0l5+QBDNQ3sqLAVREVQtYYEWAIT0hNXTPCEKHjK7i8OsxJoe1WX6QQqBo/O/dT1b/ityK+HFIl6yXit8DzUTPyIL3n2QV2JygACBleGZQZomJwHIKHFVg7lkq5/szvMCLAtnJpDSb1iExVgRGgbXGvDP1mmZH834jY9LPUj7nbcz5boCipP/3djlfhpDCgVKA8yKwnlFw2iRDh6LOUH5Uj1JbYf1XoH/mm5OwoQdA/UhCq6+0G/B4BqvYiTjlEx/FaKsIcmcJWjvuK0JdCX+mBNp+6BsfD6d/jLDjyLKspXASKGqqIs9VDRs1wTYitKhrDFrJRPqOc4SuAcSIwfcBY9bcKLlW4ViIjBWjpEQJMwSMPQFDJVF2edWJXQp7WvZXTzlykAKUiZiBlxIlJGZX6uxAMpoSxDfuzuTqTKEtetiaFfIwQkJG+auJYWMaAOAsqUJ8pgvT6YysHqAl/KW9PebH7BjF+srTZ8bsKFDKsTFD13XICtsLJXd9TmDN3nUP+sHAx8JpySJZjzMIuBgZpndvW5EMA3veqyWMhKqLSz3JIbbgqFbFnGYwcYBY+C3+pQGMmMe+hCq8IyowqprC3nDDFjcAoxVmlbGxEOhxXVX4vCtJeiDa7eNlkokRuVSFNHJOUCnrFfCDCs4ZPyBulJiSjWiyTadXbiACpaDlbOdUQoXwgNfiKhonwPMFF1RcRjuB9nMUtkuzB/JbHNh6zRZPCiZDdB4xx1kMyXoapQra1ENcEErLZerQ1Ya8IfcRQPQ9QP/hpKYwq7pq8PB+Q4lgToMbRqP7KH1pniQgpw1dbb6nPOA/9tPUoenPZHml9dY/jFfLq81vhdeECYJS+b4ICmQUDRKCetrHlZVXQrNLnVV8tZ4X4GazquX7SzzGq1ri2CFBLzk8OERFS1a/mUIT85tvWkhfwvStSLxzNLIEpWBkz4zVbNCmcEHIdVNzsgyED+RV5FtXh0WTzupBNOPhqXlUSXuVWvjROgpFxCq1yHhGgz6r4+p3y09f2FK+fKH11ZB+vubqVstEvnINlXrMpAvPSPLZCoh7s8UKwRc5ygnuS6ozaZLM1q1ctMwkdVz5G4pqRe5rMq8AaNOpXKMZw9TUlaMF46whGBOhJPKrHtsMJy7xGDVLurwLrT80d6k9FV3W2F3HIr1Jv1kluLdYfwRghz9ry9mKg/HxviEl2z8Z6yX6e2UNS28W9JinlIxdDtVBDkvrI9lW2cNlxw3DduwW7lh711l9uhcDyffKtQj8Grg/9/goQobhnjkDRzoNgFSc8bKKtoptrUgP6cPZLwIANcEz3fH1E4QJggLYUbe3y2IKlLoguywaoHZNUxdKCaOTIuwqZve9VJpo8HQWItOzlzcJwfdSmHLYIMA2RcigU9T0K52yQg6PGkJ8ikPlDCVsULi3gd/1mvsqN2oJJGd8zf/Wp/lcQLLwossvjnrWBJp1n1ZmE1B7FwmiFbYxfCCz8Q4bIjxeXaL76Vi79oi8obL9riJ+SaZdYjAjQ2j+5Uz/9TQ1SkldP0HMQHmyK/EQMFu4jOXNGjo4z0B/5igBOxlrLe/qFM3Fcc7MKHy+M5PPurTBSNEK9GGua0Jr6QXoS2RLMticxZsR4dRLMLhA7Qhg1Q0N4LfytwNH2WxqHkTyrQggn06YargbzSCRifrhX6kwFXP94pJX5tO4j8+geVYxoqUt9XN9uWPg04WxZjPD1nlCCB5WraScnL24yUzh5UAISoBSRJXLoPcX3KrBrQzXXfbdhMKSPGd+IADVEwLkIga/8nRScMPIzLzgLLTlUKi07a9q+QV6z+9oDqtKSGdFPofCpQarSmmQqmPeQoOR0+8XqaYhQTlDuRhIfISJLITISXKuiq0DBh5FZApTqIgUnWZ9E/ogAWzXN+IXTV91VwzFwkOaIMB/xmSecpTSAObImP/26rqjvhVSE8JoCrNC38AUIQYRtJse9YQFFt56swje7QjyZQxKbdxfSyN84lzBm9jmFZ4BcH5WiACRMs42QykFktxQgJ2G7IgXobyS49VDas0LKRRUW0bln/WMLoTmEAEUlnEHrEPyuT+NUZoDwOGnz8eopmMIdMCHl6WzduiffZFKZvIw3X+DDeBGBn8iO+mPYKm9IkUK0hmvrUVtnhLBOP6iyW9JB1axzrCMC5DQoIUUU+1r139WWEFl6JcfJKeojOzisFMjjxNZhrz7xf2kFz/ibVX8IUxrhlR/UUdgBRMT4rK9ixHtBQVJ3iinIk+Lh2TOBeW7FEBNb+KF6h2x5fSRIEQoP7wlrnhV22lC56y9H4igY5K0cIGNHnuuvJD07RApZ52d5ixCf00VQmQvmSfoB+VlzKudnTaW84EzxQ99bjSDtohJ/pTlWeAA8EZdhCrv2ThZeFeHx5JDqsAndGjWCpAQpREsZLHWQH0S6XvN5n70COAHGSvlxJvrIhn0hv37tESBHIRxEfv5m/FTzVWAvOTKjapEZtZcnMIsE/O2e0x9+R5AJWfWdCGJm7Z/dSs7H6V5lbhUeCGpDPlDIsSdcsAAaiUlYt0pF2JY8VppkNyMX/srFIESPeqeUfF5IZHJfIUGt7xCc8FeFndptw+CRAqSUqWT9w4FQ1mcHstIfWRAv7LXUBeH5G8mbF+ZHS4D+Nj9aiE7Mlz1PxpGLtYRGtHHlZUSFgyFUE6aYqLcqkBZDy9e036HAU0tit4adJhTh8X2GCkSC1IAwhcELf+wGOPuE1W+UrbV8nlayxlYIzPDlAPXP2XfPcIpyviIEY0sFq/wad+pPXo7ja8PetiHN9lFYwl99qn+2FJ05LKfo81cstBUeDN5TuEqZtXswWwhNEF0bpvHMVExvMrdNpY9nlvMRLiYstsTBBBc+njn5zwCpD+v4AvkvIdkoByj0bRUQB3TmiiUnhqg4O9V/42m8rQelcI0xMqT+2n5YNw6zjUbyRKKeYwHEqMLsPfWUl8LdYKwIjiddh6XCGssWqJys52PUe8hP4/EZvGOb4MLEhNCOJz9oJ4m1dDMFmWeB/uEYfJ+K+2H0lBBihB4B+lt/6EOk4G/vOxvcO9WWfJ8wNmMrz2tcKUCL5f1+iwA1fZEoI2kX+cH0Z+A8VKb0C6LcmyssFH4LTB5eFsmp2GUSA3KUi+HZvY+Rj8LeUTPxhT+fLG2tMv0tb2biS2CfcecI9Sectf5Mzqvtv1EITAlTTXJ/Z3ygLELKE4E4sRR9An1gzqTQM9OQpfnoeJQdx7leI5n96c5RRY/Cm2Gy8dpyNbZ1mVQadSOEESozZiFNb9JqiE6VT2VYWNh6fKQ5UjnOQz0IBb3PkpAzTWrhvH5rQzXE7h5GBKjpHwqp97zFZ4b0h9QGojLWozwukrQOsJ0HWX5lfozygRpi1a/ZgmkO5jxeR4rC37UyLBTuBq8tT6eA4SciMmF5W4Ys1OlNVvksxmCNV9Zu+akKbJLLDd16WGrUpc/w7CY3NdiqimeF6xYCMkyLf/UXxcI4ewRILVKA+k14eJYdIO5HQUN+T16XOmvVbg9ym8jLvSL75HtVyq3X028tQbYNCToHB+GcVg4kIhEtrBedFwpvhgkt58dAEZGwzsLp3pM6NFU/1VwLWNdkJYdjqY3jrJeHjCAPKKdjwlOTVOmzL5eh9ihjTW6vXefYI0BhoZwhFcXIR0n+Z4E5gXhcM6UrTbJnkbLPqfobS+kPjmINr0kDmG9tH6VxwJwnpckx6697dzEVCrvAeCWfKTdkpEK8npiUi9epni0V4FgKHEjARvi91U7LQnh5BodU1jmmZ4J7dI2UydrIRyFwFBFF9czFH0Qjz0bhI/i9O3moRZ9z70LYLcIyfxRT5BLXi+o156aqpUc40yK/wkNBcZnsPG0v7OWVEeNeZcZgPIxV1ZMaaLeNbYFhKCq4FkSowvqsYY+KJJXsvjSKWDi8lQPU9PEzEiBSp2TlZV2/8JOi3wP5YmRGsVkgvvf+nJNi5BjaZUKaa1A0kj7w5f+FwsMgNyMvo3LbTkSKUMXyXhJCCJTS7E4Q76MihT8h32dLfgvT3JclMPYHJwzuESCnIiSUH7U4fEtBvzeQt5CcupfeQDp7H9Pls6nacnbW9O1xdGsgTMpYfrDtN6kD81LfPXtapHBSICkTuJ14SNDEs4aPUb8FPo9gkQKVsGerEzAkeScVRMQhP6h4sFeVPBpCXw6CWnWdMfweAepLi8/ltZ6lAoyErb/LAwwQIKW+d7yFpfK9SFPqggp8KzzUNKTX9p/0CwdTKBwKRkDhZaIhGiGaB6giHmGoYsZbSRA5qAbKM/LyM+G0gozrQJ4Ul2qk/NBoF8t7wfnlqPRTi60QGFl+dD5Lv8vrKcggcOpKmsJSqD3qzZyR3hD+U+hWDxwR0iNfobDrkmc2L9tCyTP0XeFikFuRt+FxTT7ElHDXpDa5kY+q3RG5OBNYopzBCQVv7eV0DRSKqrMHCTA6JEolWGphi50iyz1h11vh2hR5qJ8WWwTovo9QSvcAYVNRqvxUm9SCvhTy6kcEIxrYgv9TsT7LIZk/b+17n5dO4BhdS66B00WK+phCNUelGz5irAsXhQS0pLcV/m0YF/D2HlSpEme93hHGm9CLIcobCY9HYa38EmNFmojaez1pJBVYCXKGQ6UKLY9QInuhrywf0n9tv20RoFzgexZ1kIjqusIEgtOHqbJzeMafykIsKq/e1yMYx6HKhMn59rYj7sNx89isUa6ZYvU9H67fPCgCLBwGZLQnlFSZRTgUgxzeEZPQZM/CWGQogd6G2tkXylA176NEhV1JmDMIBMmoNWpRHgmZu7dHg6ISlreh2RYBUovtPT4Cxsb1ICzLUag1xMdZ5GEF+VpK/anvkZq+plBdf+BYCiLUt+O4/qOWJxlfapJz3VM5Nl/e08EVCr8JcngKERRP9m0egaz/o0AYGgNEXnmMFoJTlFFEQHIMNst15K1cEwXDQBGlPCaDVpl1nQznqGtdAxm4xvaRYVsEyNAfAfeHUIwRVapPpAmoO31GIes3u22QnlSCcNP/kaJrSypEYQNJI1FKj6NBmsbjKPLmoKQ1suf3UeNTKBwKW9UYEgOnwo5SWQxAuKvAgQjtJ10/fSaVaeenulSoqVJFCOqF2mHgIUeVw5Ch15EhkjjS2JAr4rVkJxgRoOu554vqR3AflgYhX+Ej0qPy9I1+EeZ6qor0BseQ73NGaohPP3k/Re3acp2IEDk6nnvz+SOXIFkvyZkZlyP7o1B4FyARW6MoM2riSOOQ76HmqI6WPNqGBBGbCqyfFI/XLExm4Ao58oT2KQvzKA3VTu/xf8UXqoPyfCuBU0TOhbBzrBEBOvdbc6jO5/ju0X0gKPeFwJCdPtF/yCXfk+tv/6eIEZ/3+ZzXfHZ9nVpU462iyAwQtmvSD65h71rDQuHpwBCRCEMXTvX2fL4Fwi8Lp6mTnoGmUTCMnWGrFroehhsiFGIpjsgzIQJ5MSEepel/lBG1I8lOmcyGy95LXTpe8lMjAkSUM4t5ESoCovCoNoqOY+B49Iv7lUOlovxt6RJi028UoHQCQvxkadS0+9UvnIa2vj4N8XFuyOlIpcxJ6nfj5Kd+LhRODQYi58T4GSDvflSOCBzfEheFDsdfb5VK87o8nJwXQ0dqSFHVGiEgaoafQoXjMkhEhfgoIyTuMwgGUSFFRKICjmC8FxkhuTUxxBGkmDQiQIS0VpyOhRQdGwErNgk5hfPCeKTlWIhMgYfKdT25lsBDC1yzXJ1Krc+6d+SH7BCPfhr1oXMgPtd+VFojUDTTp8ZQf1cho3ApSGgzWCqLGvL3kUASco+MHxG0+ap1k79KeIw8EALjs7h2RM4MXlhP9VggTG0hE+SBTFVGkYmfQmo5SEUb4b/8o/DXOREYjAhQ8UjVU9FBPwnNHcs1hnxdN4fieilZBEzBrglvDWrX5x0vu1P0k+teX0ea8Dc5VAr+aOJzvQjPOYzBEWsGC4WnhMkuxEQS1BQiOdqgGI8cmvNQOZL9PcPWEBK1g5T9zhBn4FxUIjKnYNyP3Sfyiu4RUVFViEsY7pwUMIwIEOH4jOtGrEJZxQvHFZojOkQvPJxV0ggM+VNZzkMRr8+flkXkiiJHh7qB4ypScULIvl0mVChcEgyJl6dChJyUzqMmPsWGNKgo57qlCimoI4DUhaIq4MLMdgO/Yow+GBEgMvB+6szOB4rwqF0hrovjWZ8zDSnK77l2axcfNS4coSd9I1j351xHO8JC4alBwcifMXhGKWf1KCNAONSGsNW5Uu1tjd8SmaNAFTqPPJ3QLk/Tdh5FCQQwIkCKT6GCagxx2ud8FKQI2nungKnThN5C9CNztC2MA/Uqz2ncOSbjUii8JKIGLXdASkK9o1TYCIzbOYWpVBbjRwLCQoqL2vIe13Yv3IPwV8EA8VF9UZ8KMAohIwJ0Ldn5IH8oP2dx8VvAsXA4QnSFENci5EeuzmHt40zl+R7oU7lK50TuRxfDCoXTgiKSoGf0DIShvIdxOIddGnZeKGZQX4hY2IqMLboWBs6SoVwb5ScHKc9GXYbgHB/5jQhQk/vzueQQ9c0sEBo1Z/G1YokUQPJ6CieWzTya9EDf6eM8pUeu79FOrlA4JagvlVUkgZAeGRavwVAZJrVlyQuioN40hEjNyVXtWQdo2Y/PITGKjtoKufnbObYI0Hvyu3BVIWIE1yHXqQgjdEZuFDXCQ+gUp6U+iijCz/fMtVmeFBXMGQjlZ51JofBSoMoQHyOWkJcnQjrvaThIQh7PLhCkZ1EuQlbZpciQC1K0zEW4qnpMUXk/MkJE1FZLam2zZnGLANuGDBGy4yIwJOL4SJGzQCzCd30V1en91h1SXj73nqQHVDNVnUo4Bas/C4XCTlBZjFieDuFQEgjmIxSEczJgCtWz5xi067FPVriKeCT1Nfkt19sjszR5OKS+hwA1eUpKTj5Qcw79oqCCnBVLELDrc53vTXiBMdM39gcjPxX+j3oOY6FwejAca+xUUxEAomFUcmwfbVTOL3dJ7SBmYa/Q1vpDCg9BUmjCTzk4i3xVWik1pEnlynmG5ITJiM0DAOTLKF/5Mvfr/oWwcpIKOJSgQorzPwO5uBZ5W6qYGqVAqc+PIuJC4VJg5JSEyq0iiSbXJe/17Ebm2l2jgkOIAknkIQQhQGoO2VNw0gDPQGxbcH1ypojZkh+q104fIXoRX6HwIFA/iJBaogipDUZHDZ0B1r0hC7lDxQHkp9BB5Z0ByI0zsqYy6YkQ37OTdqFwGVBLjFA4md0Ldn1QUM9siIhajkyYq0qb8NcavWdGlgzJOcrvyUUK871WxFcofBAQnm1VqsYqrwhRBfKZk+/ygqrJWRyNCCnbZ0T6N+v45DE5nqMfZlEoFN4AZEeNUCVybNYSyqtZxqI6+UywBbBd62epyHss/N4L16LanZ0oQnWVaztGnuk6C4XCCohQZVaRQVhsqQkj9jgqz9HL8/g+Eq6jXSfoqc0fDaG5Sraqc9IK2c8sb1mFjULhZGDUlswI2WxHk7BXQZa0pwzfe2dEoHqdCrACCEX43oijkHtUUbfzhbPwnEF7l5GhRdSV3ysULgC5LM/So2g8iksiXxMme43B37PvdxbOYRdHnlMoFJZfQ9SPhPtCaBZgWzhtnaHQWyXd2kOkZzE1hVykVyhcGNbk2Ypmp4nQOLs5VGcRg8dXyYHZWeG9RxECkrNVzblsoxNueiAoIqJMj/waUerXOj2k7z4tF6LukL4lRBZn+64QC6ufLUdaKBTeCQiHKkN4lKB8nF0nCimIiVq09AOJUImqywgDwcyQleKBSjWylQMUltspku/v8GVGiHHm+XjO77jUraosdWefsDWG8p8I3X0gPdv27FAR8iL2yukVCoXfAqSC4KKcbEezjU0hRd4OSeX7ODwyi1pEaMgHsfgs1YggkYzjad+wNIUPzxxEdnkoqRAY0VJi9hJThT6nOYZjCV2pOeTouqx3FMYKWy2pUayg6mytcwxb0uQ5o2R9doasC4VC4QtAHkjIMhv7fRUthM7CWerKMhE5PQTpbzskqD3kZFkORYY0kRQCzPeDpCFBShAxKtQoSiAwx1CcEB4rUFjag0Q1ZEfh5YuRPJHGbgxqttRdoVB4FyAbqk9+j8oTgsqtUWfye9bPqUAjR2RGVbbPB0yTo6M2/Y+CE8IiWQRq6x81Z0EyRad6/ew7XgqFwgsjoa+GJFV+qTYqTRjdkp8HpwqjPXOQakRuPpPPFwqFwqlBIQqThbrCYOGrv+UWhdQKIbbE+VkoFAqXAiVniY18ITWomKGqrPhhUbbcoRCZ+isUCoXLAdkpgChiqPyqLkcJCoWpwwp5C4XCJWHNnqepWJOnciv3lzyg4ocqc6FQKFwWFj9btyfXlweiahRhLV8pFAqXhvV61vr5GQLMN78VCoXCpaEabDmM7XUeiooAPRhVZbhQKBQuDXlAIbDdInZ2IEBEWE9YLhQKLwG7RKi+PBXalrqq/hYKhZeAJ7K0zwNUES4UCoWXgHDXAw4QoDWBvvC8UCgUXgLCXU9+QYD2BXtcVaFQKLwMvmtp8oAeflD5v0Kh8FLwSH6PvfL4rEKhUHg5zD5Wv1AoFAqFQqFQKBQKhUKhUCgUCoVC4TSwN9g6QF905DuHfftcFUYKhcKlgegsgbEO0HIYzwO0O8SDEuwV9nDUIsJCoXA5UHu+LhPp/cDSPBzVV2r+5aX9q6XZH+xpMV+2tEKhULgMfHE5lfcvl2Yx9BpfvTRfkOSL1KnEQqFQuAx80bnv//AF6SN4bP5PLa1C4EKhcBkIaT0O3/f/+oa4EShDYXKhUChcBl+3NI+/8hCE7/BCoVAovAoouzwI1ddjfu3SCoVC4SXg4QeKG3kStC9G/5qlFQqFwkvAt7/l2+CQoDWAX7+0QqFQuDxUdvPdwPlSpH+/tD+9tKr6FgqFl8AfXppwOCT4v5amMFIkWCgUXgJfubSfXxoCDAnaFVIoFAovATtDfnFpIUGFkd+9tEKhUHgJ/P6lyQkiQAWSqgwXCoWXgbzfDy0NAdol0tsjXCgUCpeFR2MhwM8trZ4CUygULoPfszSLoEegAH94aR6S8J2f/7tQKBROD095VuT46aXZC+wJ0C2Q3R9ZmrWAP7q0LaIsFAqF0wC5fe/SfmNpwttfXRoipPK+aWl2hXj6s4ef/qWl/falFQqFwmWgovt9S/sXS/v1pVn47GkwHorggQg/srSq+hYejC/5kv8PgnhYzihKzgoAAAAASUVORK5CYII=;" vertex="1" parent="JvKj-cZyrbmFvAXs8Hwf-75">
          <mxGeometry x="523.6999999999999" y="582.75" width="138.26" height="133.07" as="geometry" />
        </mxCell>
      </root>
    </mxGraphModel>
  </diagram>
</mxfile>
